<mxfile host="Electron" modified="2023-05-06T14:28:40.450Z" agent="Mozilla/5.0 (Windows NT 10.0; Win64; x64) AppleWebKit/537.36 (KHTML, like Gecko) draw.io/21.2.8 Chrome/112.0.5615.165 Electron/24.2.0 Safari/537.36" etag="vzFGodlAl-N7IlY_Tcry" version="21.2.8" type="device">
  <diagram name="Page-1" id="e3a06f82-3646-2815-327d-82caf3d4e204">
    <mxGraphModel dx="1050" dy="725" grid="1" gridSize="10" guides="1" tooltips="1" connect="1" arrows="1" fold="1" page="1" pageScale="1.5" pageWidth="1169" pageHeight="826" background="none" math="0" shadow="0">
      <root>
        <mxCell id="0" style=";html=1;" />
        <mxCell id="1" style=";html=1;" parent="0" />
        <mxCell id="2d47nBokaIBnYjA3GNP5-40" value="" style="rounded=0;whiteSpace=wrap;html=1;shadow=0;strokeColor=default;fillColor=#FFFFFF;gradientColor=#F0F0F0;strokeWidth=1;" parent="1" vertex="1">
          <mxGeometry x="580" y="50" width="940" height="550" as="geometry" />
        </mxCell>
        <mxCell id="egRuFmPWwaY5cJxwygKu-5" value="Ubuntu server" style="whiteSpace=wrap;html=1;fillColor=#e1d5e7;fontSize=14;strokeColor=#9673a6;verticalAlign=top;shadow=1;rounded=1;glass=0;" vertex="1" parent="1">
          <mxGeometry x="730" y="70" width="770" height="510" as="geometry" />
        </mxCell>
        <mxCell id="2d47nBokaIBnYjA3GNP5-1" value="Docker Compose" style="whiteSpace=wrap;html=1;fillColor=#dae8fc;fontSize=14;strokeColor=none;verticalAlign=top;shadow=1;rounded=1;" parent="1" vertex="1">
          <mxGeometry x="750" y="108.49" width="460" height="441.51" as="geometry" />
        </mxCell>
        <mxCell id="2d47nBokaIBnYjA3GNP5-32" value="" style="shape=image;verticalLabelPosition=bottom;verticalAlign=top;imageAspect=0;image=data:image/png,iVBORw0KGgoAAAANSUhEUgAAASwAAAEsCAYAAAB5fY51AAAABmJLR0QA/wD/AP+gvaeTAAAACXBIWXMAAAsTAAALEwEAmpwYAAAAB3RJTUUH3gQMAToEeLC+0AAAIABJREFUeNrsvXm8XVd1Jvitdc65b9ZkSZYxEBAYQlIFJJChOylCEUgHSCdd3Q3p/lV1ICGxwRh3V6p+5SRUhdSvqrqApBIIJI2pgAHHGE/IgyzPNp5HyRptDdZkWZI1vaenN997zl79x57PPe9ZtiVbw17+Xb+nd88995x9zv7Ot9Ze61skIkiWLFmy08E4DUGyZMkSYCVLlixZAqxkyZIlwEqWLFmyBFjJkiVLlgArWbJkCbCSJUuWLAFWsmTJkiXASpYsWQKsZMmSJUuAlSxZsmQJsJIlS5YAK1myZMkSYCVLlixZAqxkyZIlwEqWLFmyBFjJkiVLlgArWbJkCbCSJUuWLAFWsmTJkiXASpYsWQKsZMmSJUuAlSxZsmQJsJIlS5YAK1myZMkSYCVLlixZAqxkyZKdbpanITh9bP3+ZwABQOT+RmCYP+qfTNFnCAQy7872vKJ4lwAIMsdTjZhr3wBzDACZHemj8b93mz4y4qZ33FGBIQABSghMc++Pw3fNSTd9ov6VIoTxchIXnPOWdJMlwEp2IuzyJ36IrzzwLSgIRDTA2J960okDi8hU9yyVht8QwN6sJg0bNXyIgj/Yt5WHVHcoym2vHNw0HhvNcnBNxxLgk4Rf0oRWCiDWmzNl+Mz7fhdf/ODF6WZLgJXs1diOI3tw745HMNgaQJG19ExjM/uU1Ga0mbWWaSkFWEak/OxlJihF5ndAqRBa/Nz2eMdQDrG4AQkMUjCZt5SnOVDuLSj7ScsI2R8XE6AEBIKE50McnJ4yaB0fqz919tvVjpMiGPTvERHaVQcP7HoCv7n3A3jf+f8k3XQJsJK9Urt5813YPvw8iqxAljEgZlJCgIwN1TI/I+bB+n2LH6w/JxBAEZg0xWACiA3AUG6YlICY/NyHgMEAa0CBMq6oYXUaP8QcC0CcN7iYBJCAAZAFNufiCogYQoCQZotUp4mK9Xk6rKEGH49AyhwPmfMJqJcbGqUBTZgARWgx4eD4Yfzj2hUJsBJgJXul9tzwbty4+W50VIWx6bHLFORuEewgwnL707iEO4ho+XG6hDuaXMJz+88ZOTBxeOEJcAmXh99FwPKlg4tWHxg/svDcgUUjByeG3wcASwcXrQaAA+OHFxJ4+azH9gpdwnP7zxmBaK6mMV6c66nBDDg4fnghAcuZsg/P6xn8yn07H8PNz96D337Xr6ebLwFWspdrKzbdgeHJEbSyAoOtgS+fTJewEmBx38KT4hJWorB0cAFEKZzTvwAAoTLHtrh/0UlxCaswiFVZ/FbR2S3uW+hcwnMHlyzfP37wous3rMIvn/ceLF2wON2Ap5iRiKRROEXtkd1P44t3/yVGJo8iz3IRAbIsC5iF+SWMwkOCyDbHTMvgh3UJbdSZCRCxLiFFLqEELqEGJOsSotkltM5ftJIo3iVU9n0K8EZ/jpghSruEmM0ljJBUZncJYYCNaA6XEM4lFFGopAIRqJQK/+o9/wL/7p9dmG7CU8xSHtYpbKu23ovR6TEs6F8gHVWByQSoRZkJJ4ZxmJ8iNniDeC1OwcxiQCntGrECafyBKGWwTsx+FYQFCgoCZbYVEwITw/Ds92pEIygwC5hMqoJSwUtAIiD33eKPifR+hMiEtJTb1h17SIrsabHSB1/zEQUKipQeBnM+okSvrkJ5ECTNBgkCsAJlmtUpEWFi3L/jUazd90y6CRNgJTsee2Dn47hz24NQojA8OYKCMz3RXdKUZgaQ4CeRuaISgAXM+9DgAPNvRXo+m8lNRBDSUR4RAimTJ+W2JSilNNtS5PfJegVQlHYxlfndsTWyy4PmJ1Hw/eb7QB7QuHZ+yoCvMowsPC+QZ1vmuMiOBfT5aKZGYKWZl/u8SPAZgJWgyHIoCDLOsHt0H7752A/SjZgAK9nx2DUbV2GqnMHCvvnCNv3TTcbQJfRumI9Td0XBjS8YZFMakCIQSDT4kAjYMSAJ3D7NsMiloYpnN+aYCD6niewxiWFgdjVQoSuWzqKJmgMpUBw8p9BtVBE7skAlhluJdS0hfr/WByQJ9kVB0MsH5VmAnBidqiMtLrDhxS24Y+sD6WZMgJVsLrtp051YvXcjCs4wOj2GPG/pmE88zwzDYLfi5a6mZWH2PQm8xDgZKUAOaBBghoANO7FAwh4oOfgbBcdUiyPp9IPg/XA79vip2ECGBODLNaAik6/FQYxN+f0Qi0nNYH38ZJhetJ/gmDk4D2bNLsFQIGRUgIlx3tCShdNqBlc8fT12j+xNN2UCrGRNtvfAXty89R5MlVPIORclOqajc5zqACPevUEQshLx8SgxAGD/RiH1kK4IkCgFVuY7m0ANtX03momphccsAUlSHoe0W0kQNjlWKvgOQKOa/T4VLiiIy/sSRVDCJrPdxMAkYHrRuVpmaA7AnAcpwyJZWZdwOKMMWw5vx/Wbbks3ZgKsZE12374nsfHFrcjAmCpnkJsETE2oGqgR1ViHdZmIg1Uy8zfhwK0M6IeLgROECcrEs9DgdbqYUrgCZwE1+H7NcsgRs4jhBS8SEwZzSaTs9+8+F7BFd+f6c3SnK6HLaMGOY99SKEg65Zj6mXggE6HFBQrKRSnBTc/ehc0Ht6ebMwFWstD27duHf1x3I6aqGbTyHik4M3OVQRQCjAWIgIkEc05Er4gJwhiSDyIJBCIKTSktZFf0IN2BJpu2QGEwygOHTYEwye5g0fty7A7d7qg+Kn28LiAVsjexbEpBSPT5OXalaowPMXhLeKwWlQOmpcy/Od6OQMg4w7SaQZHlODI9isuf+mG6QRNgJQvtngOP4cDEERSUY6qcQsY5RFivzkkwiR2lCGJUdj4SwEQ+6BwmklpWw2RAkGKwY+iVQmIIyBRam5wtCVlVGA33KRUUfI2NsQmzfoXfFVA37YaRjtExTJoDYoZlvo+UOS/H8jhmmbXziQP5wcsdaBBIA3exuIwyVFJJi3KseWETVm6+J92kCbCSAcAzB7bhR+tXQpRCzplkTjZGGXwK2FXEjEQzDzYvw600xnAsN2NcJFFiQFBilzAgUySAXp1kAy3Kr/pFrqJPXRAKwlYmxkZhTCwkZtZdsx9SwfviQVgsHsJ4tLDresoBpQSvKFYWBvLriw4qYG8U5LaZ4yQQMmIoJRjqGZCRmRH83WNX4uDRw+lmTYCVbOWW+7B37ACWDS25bKqaQcaZZ0E2qTOK5XhxFhICg13OFAmDwJ7McD3sRe4VMSwBFAvEJoWaycwshgFRXAVUAwCToG40rsSv5Fk2Y9w57bKa4BWHDMm4lgGW2QwGtikTbMHbv0lkGGO4Kmlz1tySJGLAZAm2oXjFk8QxUesSFtzC/rGDWLH1znSzJsBK7OrmZ++EQHBg4siXC9KBdseCyPhrKlidE11OI5ZhQYFYu1gRY1AxG3NBpjCablmFcbei5EsxNYfB6p4jQSoAL6qxF4NookwGu2GGEbgoipiOjauRiEmk1+CmRFyCf4DTTrlGxGTlqzD3ywbcA6Zl41Vs3FzFEZuLkNIm9IPQohyDxYCACNdtvA2P73463bQJsM5eu27jrRhtj+ONQ8sWilK6vAUEolqciRqYhWiGpYGBjconxfEmO9GZotiNSD3nCkEQWny4rJ5Qz7VUqdBFBByTUtClOE5OhtnE1A24RIFwz5Rg86jsGDBFISrUY/6wmfnGBWbLklQQ2DNHbIEKJl7mqgfgg+/aH3Yh+CxjjMyM4LzBJZ8YnhzG9c+kNIcEWGep3b/jcTyw60nklGHv2IHhLOcg30m51T2B8q4UCUQZ9mFdJ5hcojC+JTVECVcWgxxKqsekwkTRAFMsDkS1fXUXMQgLOYxQ+nhROz6xgXHDaMIwl3Uv40RZxPH+iOHVVi+FAvYU5o0FvqEEJUaOlZFLfSATh2dh6xJeqwDct/Nx3PjMXenmTYB19tk1G27F8OQIBoo+EQjYuDHC3juBCX6zYRsAgZjBTI4QxH4Z4tiUTQcgs2LH5FIblHHDXMoShxNasw+x+zCAKSwOhMSChXggtHErEYYI1243vSLIJqTvAv+sM9Yd6Nr9hkAj3r3TCw32T+LXIhTcMUqYvU/BamXIwurJpdZlZONVG+xjE19b3L9I2mUbV6+/BS+MHkg3cAKss8ce2vUknti7FiDGaHscRZbr+I5dwjeTGuGqmIlJuXSlMPhd99McO9L74mhTE3h3rqX1oFzug1thtNszs36BNWA6CRizvQTup2VlNo+MKYh/a0AhBOkMALoSYS0Ac+jqmaMRc8wcpGm49AfWxc6AGS8FEuUEJhwDs6khbv/GXVRBG4zgMzlnGJ4cRpHl2D68C7dsTiwrAdZZYlu2bsUVq6/HTNXGor75klMGcooIJj3BpR5oRQNl1BSgAqmWxuLiIMhsJIeVYVNu/ypgJBLXVbukTJOjIIAJfCv3EqWgREzgPUjihHfRhOLv9GUwZCRfTHJrAHJhHbdOZQjKcoIEWC0FY7xmFXyUzffCHJuJW+lPBd/n3MRgcUIFg1jTJ7SF4goAEUunKnHdxlV4bE8KwCfAOhsAq3oezx5+DkWWY3hyBFmWmQC7d+tCB8/9TnCSLEEfK3c1xb4frHZRwKZc2gCZFUXUxAzC4H54HDYNgoLvRlAgTUHaA6wbG//nt4NvPqbilmJOZNSyQUXdIyHmWIIAnJamMcH7QGrH5YpSMAZhqkWTKx0OOIfHRCg4R7ts6+s2dRTXbliZbuYEWGe27R3dj6vW3YixmSkwWGBXA01JDLNp2cVBDpGdR+LL6FCLK3n3TUBuBUyCCI34VTunbW6lYqQ7uM21+JRNOSAxCgmm9AY1GZnwVc/Xilb3grQye6pSSxKlMJPVx5dcYF+apN71sbISXR6EIP/LpnmokAmamFd9zMNzciWOOjcLRlTnvh2P4cebUm5WAqwz2O567mFsO7ILrTzHTNVGnml30KoWKLHB6O4Z6Ra2xCz7m7gSBTlN+vN+tc+Xy9XyjCwyWLSIyhXtSiRceQ2CeJWILW7mWKMrDJSFq3wI3gvEUl0cznqTtkLGiZHWgnTKZMazBhplFhQc0Bj+x6bURpkaR5dcGzqcxuUlMTEvCrS+OEjLsgBnT4MYnarEwr75IgBufvZO7EsB+ARYZ6LtHt6LGzbdjkpV6MkKKbLcy457xWAv2Ae75C8++dKRJy0HY+t+Q8EDIl/cK2wndpxn5BVKu+WGfYInexxjL7usFUJNxSGLw8Aa1YlZl4qlH5zeqPLszoFYuBO7kqlUAE5W1pB941anQsruznaLmDB5oty9SqHZnC8YF5O75obJbm5lcQzLGp46CibC0/ufwZXrVqSbOwHWmWe3bL0X+8YOIOdCu4SUu1UphIASNIywffq6y0/IgJOO31hJKbcWb3KcSOlVNUKQm6QCEBAjaxwGvcWuRvoguwe2eDVPA2iwANCUAc8GopRObg1TDsKyGJutH8lB25VMI6UcyRyLaKlls1ABZUDcBvu9dEQNPcm5zAQtzUwqkFI2bqRbMJA62JJNyxAAuHXLvUmCJgHWmWUbD2zFqi33QqkKAiWtPHelxaEqQahTpRUK2BAI5dw0hy2hrrvLaA9j1EFCpXPNjNY5EZjJN44Ivtpm2Dtt90hnPYxFGTeWKZaeaup5bwTymMW7ZnUpGQlSJMLqIZdpT7X6w2CfVsOdKa6XJOsSUpwmEu7YriSGStKsXW6bpR+qORAIOecQAEWWY2T6GL6z+tp0kyfAOnPsR+tvxt6xg2DOUalKR1ScnnmDOwVf4iImHUCDR4BDDTgXa6eH5TxwAetQRip2wTzDUsqkAUQ1gujSWico7R4qNAmZBvhArlmFRDlfQQwszEoPYmCOeHYF921ZEnkShLorGmCjCk5AUdcQuVML2aJNdwjB1bBGJkKnKqXgAo/sWY3rNqxKN3oCrNPfthzajp/sfMIyC8m5cIyg0ZywZ5iSgPrqvqsseUlrcNcikYQa0DQqOtSYkw5LUdAlBw1FhvFniWaR1fJf7N+UBteynm4QAo2tdVYNeBVsF676YZZnRci03GBzcL0M+80oAwAMtvpkvD2JH224Jd3sJ9FS5+fXyL6z+jqMzhzDm+ad9779xw4gz4pIj6+JXYUaeV1/65rv1rWkSNRPAhSyUjVuiV+kOVD+Su0E9+QlmoWxdW1HPkbH3Q1ynJBhkOUeq61SNLTRuEalR3HXIe3lknMJCy7w7MHt+JuHvoN//aufSTd9AqzT0+7f9Tie3LsOOeXYO3bwqZxzw14CLT5pYCSqa07NDhBEccGy4c9kkiytuJ1AUEGhU3VAwuhIR6+L1Trdd5X4vCysauzTFZiKNyWPJ47ACNWqssNU/Pi0te69oDfvAatgeVDiWJvzpSUImkOiptmRz+Fc65hZ1ceDmVFIgb6iR5Qounv7w/jQ8v8R73nDu9LNnwDr9LPvPnUtjkwexbyeIRlvT4CJorZ9VM9ZkprDPhtgUAPI1Np4WSZlM8NFCcqqxIYv3E5n0hh/4L9/Ukanx9HKCi96GIF9MOCGdmmm6cGR+CXGd7Yxh87NGm9PIqcce47txxVrrsXX3vCldPOnGNbpZXdvewgbD2xFzhlGZ44hM9KZKiqP8Z1nREzOVNRoIgi+By0bQilgpdus+5I+J3vsGZZSCpVSWNg3/4wb5wf+6FpiZlRSBakMNYIXan4BULZkyRIvFaQxzFafGV4nV8uo38sow1RnWjLK8NjetbglacAnwDqdbO+Bfbhy3Y1oVx3M7x2SnHJkyEy6o62n4yC6q6WNGVa4j4P4is3UDpTWSdxSP8OoJzQFqOGLdzuqg/v/8Ed0Jo73059fSZ2q9C3RQg16NMha1EqIiEhL+BA1t1SzjS/MNj67Qn8u5wytvMAbhpYunJiZwvfW3ID9YwfTREiAdXrYffsex5bDO1BkBY5MHnXsKg7gBK2mXIM+895sxXLu0hF4jkhRrIIsKFWJgaLvjB7zoZ5BVKqEeGXDeKz9agS4qc4xlLWJnhnhMuvsllGGPcf2D7fyAruO7sH1G5M6aQKs08C2bduGazauwnQ5DQIk58yXkETqnsHL5SjYVOvZ8hbijgreXWzu1qwb02g38vHP3Uhn8rg/ctH1pN3jssaSaolqJDFQhcXecSJb/Pmw+WLThCKd6lBkuShVYeXme7Fu36Y0IRJgndp278iT2DGyGxllaFcdZJR1danpSlsw5StOEyWcK02TJ3AXnYRLI64JFCqsu+RWOhvGft0lq6hU1SyYUmsvFq6OqtpDpAm7qJaPVd87EXLOMGHKrvaOHcDlT/0oTYgEWKeu7Rjegzu2PYgiK1BkhRR25aqZIMVPeq6FWoDjy2+qt5QPgFGFsipnixF8AL4+5GEjVWp4BjRJ48x27RrGnYjQyguARIo8x+p9G3HP9kfSxEiAdWra1etvwnPDO5GBMV1OIyOO7/KmLG9CdzY6XgZozRKPEaVjV8uGlv7J2XQNHMuCdPVRjZtSzDGWTeBUZ72zZPczM5SqsLTvnMsnO1P49pNXYfuR3WlyJMA6tWzDi1vw4M6nwJRhupoRXbrRoEM120RpAjOOn+ZNjY1jfRkTu4KWRmYm3P7p733lbLsWi/sXoRQPWp45he3OGliSHcv6isZsDwUzzi7VwdT2GJfwwhYX2H5kD27ZfG+aIAmwTi27Ys112Dd2wAReC3DGsRJCY/1aqOpZmzShAoP5rNtNKJjH9cmkaUUpFZ7+/NkRu6rbvZ+5ijplR4OJVSqdLUGXMUttToM7WLuWBHIdjZxaDgHMhCLPkWe5dFSJazfcik0HtqZJkgDr1LDVezfgyb3rkXGGjmpLhlgJFLMtQIVdappiKlybNHWrr7YTACEoJejLes7qa/KWhW9cVEoVj32NiboxlDliVTiOWFbNnSch5Mgw2ZlCkeUY60zgyrU3pomSAOvUsCvXrsCx6XGcO7D4MqbM9LJD86vx0S2zPNVNzAXSPGnQPekUBO2qg8c+t4LO5mty6+99d6Q370VZlV4qJ2RZs43trGoSZuhJoCjowtP0GcO+WlwAAsmJ8eDuJ3BDys1KgPV6221bfoLHX1gLJsa+sQNftrIjsSpAQ+NOe2fXuxBHEyfQM5c5Yl52NV4Elaowr2cgXRgAj3/2x6Rs12zMMragWhA+KMVpiG85jXgK6xKldr31bpkYHVWiL++T8elJ/HD9zdh7YF+6MAmwXj+7ZsOtmOxMY7CnXzLOwFbSmOqP7VnKQxB0hmlU65wjttJFynQQ+OGLrqd0ZbQNtgbQqcpuQHGXpZ5b5QTJuuNbXXFIAhE3XG/zrtGAH+tMIM8ybDu8E6uefyBdlARYr49dv+E2PL1/EzJiHJse9wXOXdnnDYGUMIIu/DIU+WYBK8OulgwsTBcmsIcvuo6YKMrNCgatIc0h7DLbEKuS2iNClFOGRePzhpATo7foESLGj9bfgseeX5suTAKs19YOTRzBbdvuBwHoyVvCZJTDRbebpyiVgRBlsgvFOQphA4pXhFaaXZWicPcfXJXYVc2evuRWqkR1e+eRDGqN0tYTfkOWG1zXqINPQ1IpESHjHOPTk7rjzvRR3LL57nRREmC9tvbD9bfg6f0bwcyY7Ewj58w1PmjqHtyVEGrnBmog9jJAKswH6qgS81spdjWb9eY96IgJwDeVR80SYmyUqqk3+6j3kaxVKxABeZahXbZFBLh92/340bokqZwA6zWyLVu34o6tD6DSOlOSGQU4iZslx09nDka9KTbSFR9pSn9vnjhKBAXneCjFrma1xz+7gpTRHKt3/YpmQwRmDS5jV1qD6byjyEhPB2/W87WIcU7fAilVhR8/e0e6KAmwXhu7/fDD2DO6DznnIOinp26dZbpCUU0b3JqqYZDMhUsBkjVlyrtQi6CjOjh3YMmidGXmtvMGFn+7U3VMY9mYBdU7C+lLYDt1UPAUku4seJswSgRyBdY+FCbGfbQuYc4Zth3ejb99+HvpoiTAOrm26cBzuPO5h5AxQ6CE2TQIDVpnuc4r9cRR+A5XTV1gZhNdiNgUvEKNlY9hItz6qe+MpKszt93x+z+4qD/vRaWqhu7UiBNLuxgtRf0Jmzx0J/oQVidEPWPJkjVRVGHl1nuxfv+z6cIkwDp5dt3GW7F/7ADeMLTsfZVSWj4mDEcZJkVBoNY3Az3e4JSeOY4EGJljiMT4JoKy6uDcgSXfTlfm+Oyxz66gdtUxK7keZF7yGoXuYUNdqFVgrnfBjtstapZVqgqZMPaNvYjvrL4mXZQEWCfHVu/biLueexBKBHtG9+kuOOy1rrpitIEHwQ3hkual8qZcLZ2sWG/uVYpCX6sPd/z+9y9KV+f4bX7PIMqqBFgQtn2MREYFs3TfoWbpGWlmzO7X4L2cMwhIRqcnccvm+3D1upvTRUmAdeJtxcY7MDYzgfPnLVuYsdZS90/TUPYYsyQa1h6/TVpMXatUTZLJAkiFsirx2Gd/nALtL9MevugGImZUtvW11J4czq0zYz9X0B2GWrFtMx3sT8y1Zi+1QUoH4BVVeNeS5Xf99ce+iAsWvyVdlJcwmi3RLdks8Y8t9+MvfvK3mOpMg0kXaGTM/ibucuy6G5lGJKrxqtSe2LNsIwKUqkTBGZ64+KYEWK/Q/uk3flNaeau774TUHu0vNVXmurbUsI0AShTaqo2Nl96Zrt9xWOpL+DJt1bafYKozhYGiXyY6Uyh4llbM7iEdNDIFmnvdocGtYBzH9nr5/ImLV6ab/VXYTKeDyfb0t09c62qaC9N2mC2Wmyu4Y8e/uf8r6SokwDrhdu2GW/HonjUgMMZmJtDKC7NYJDVGRAELigtifSa01O7tWjBE1ahUA2Z1qg568550YV6lbf3jexLgJ8A682zFM3dipuqgv+iTqc60AZ+gfMOCV8CIbD9AjVMSB2+F4iadvo2wWaaKWzoTxDdFFQXm7KyXj0mWACtZg/3j2hux9fBOZJxjqjOFnAutJCoCCM3a5MbKjoQuYrgEpZu0MFwrZ6YGh8JsCw96ZVVift9QujDJEmAli23P0f24+dm7UUmFFufSARvMsexK+VCT6zcoXbEnm6OFCMAAgkAMUIkKGBf5LQCT2yNAJQpEhPv/8JrErpIlwEoW283P3o1th3ciY8ZM1UGLTduuoFhQiFz4ikI3Luh14JbFyUfS9Wq63o9YDjZLFrWNiZWqxPlD574/XZlkCbCSRbZrZA9ueOZ2KAgYJBnnQcyKGt1AOHAS3+AZHAAWXNNTcvsR/zmJg/buO0gvg+dZjlWfvmJ1ujrJEmAli+ymZ+/G8NSIK6UoKAeJzFpLFqGLZVvKABJrfSyJxNjr1bMNQXsTaBchlKqDdV9YlVzBZAmwksX26O41uPnZeyACVFUlLkG0CazqIpYI41TiagttI4RI6A3wASpPybrSIiopIaLShUl21loqzZnDbtx8F0amj+Kc/oWiIEbLiLpdPys3ElbnM/ntmaJ/U5Cn5ct2An2SIAGViEDsdbbWX3p7YlfJEsNKFtuTeza4AmfrEtbBSsTWAZpW9EoiJ8+V5SjNsSRoJRUV11pX0NOt+DtMoL0nJYkmS4CVrMmu3XgLOlJiad9iOTw5bNI2TXJnPb5kxKoIpEXhAIjouJMr7ndB9mA/BrXEBdr1ux68yNUfKsgpU+C898A+vNgZxgvH9mPb4V3YeXQPSlXBj0KsXBH/X//GNW5PxMG75J8D7i/eKWB4VkqBo0Dk3XUOP+dIa/DX4NjIrOaC/FXi4IApdETY9gzJMFgMoK/ocQsnBNbnJeRSfQmaXbt/mxuCKTpTd4/Y7cAEhgCideKVKMxUM/ilN/0clp/z5gRYybyt3HwvHtm9BjlyjEwfNexKV7+apspGfFKglF/584kJAJGYuUNRXMtvExdFE1EQ9/KVtroLTomc89d9TFZtuQ9P79+EkeljRuHALD6QdpfdOoIhnCFKicFoJj0JNUYr6GmpPCSZ9A4X6yILAAAgAElEQVRXKG4FxZTeb3e1ny+Lqiu9+Aw5LW6oTFWBfihwTaQv3jMF74V1CK6HBYleH3HPr3DVNz4+8QcTPbR8EnF4BH5v7k4hoFPO4Px55+F9b3x3YljJYvvxptswUU6CiUWJICMCRMX9NCV8wktwR3fdsX7iymwqlT6wTrVbV0SgIFh78c2vObvaPbIX12y4Fau23IM9xw6AAfQUPejLe3QfPqIa+zk+M9yhhmoSvPdaLCxQI1B1bVXvr1q7bnO9H90TFJ9nzLYbIdg8+Ej3U8x68C/f89t4x+K3JsBKFoLVHVh3cIvu1islevMe3aorfBgKgUj8jUqBRGWYllBXbqBgAtRSF1y7KYn1rqpKYenA4te8H9QVq6/H1etvxs6jL6CV55jfO4SMAmngqKAbjSunkbSOeCgWUvVInZdLJ2XYUgOgNMnzSPiMCPWqKC4WCNkLAaLC4nPqxi63QhvAS53Cmdw6W+PZBXCkmVgcAaAaKFEN8v1JScCyf3rJ2/Fb7/z1s35+Jj2swF48dhAX3fRFbB95HvNbQzJZTqOouWLCsZJCdPtFT9taUmntSUwNT1QXwzKmRKEUhbWXvHbyMbtGXsDXHvkObt58L3rzFnrzXmTEOnJECkyZGJdwR80lXH6KuoQ7jEu4XAl2GJdw+StwCXcQsFyUlocRkh0kWE6E5VoyxrmEyxtcwh01l3C5QHYQaHnNJdwRuIRuv0LY0SlnPnn+vPOGHznLOyIlhhXYsnlL0d/TjwoKE+UkMi50vCoEGkUN3h3V4lH6yUyBOAPmyDUlyzCUp2K6C06Jc4deW3b1F/d8DU/t34h5PYPo4RYECv1Fr+w5duDbDHw4cAmXnyYu4fLm31+2S7i8to/lgUu4/CVcwuUNLuHyBpdwec0lXG5cwuWS9Zz1YJUYVoM9/vxaXHzrn4vYxhKhdIzMJiopETC5dzlmAHNNbiLS7RBMYLhSCkrkNWNXe48dwJ/d8Vd49IXVGCj6kXOGhX3z79p59IXlrTxf3sM9J8wltE8AagAGXzd+sl1CHJdLGP6h7hJKoGnd6BKiySVs+qo5XEIC2mWqbkgMaxb7pTe/FzOdGfTlvR6sXLRdAr09qt1y5nlpVwtNo067RD1XeFWnWolb0lYAlFL4s1+7+DW7Sa9aeyM2HNyCwVY/MspxZGrksonO5IeHWgORS2hTMuzyvCveRm18/KK+zz8j3eGn3vPdpoA0415dcrVbLNEzVJ1CIEqMAobvUmNBTMyqG1jMsdCsX0WWQYbxysBnpBrVDhvnUgC8OvUlBl6ai9lZgCOgUgqtvJUmZgKs2a2C8svONaYAZkApAzDkFEfDhIVwoooW7jZzq86w/IQI9a5EBD15Cz/acAt+8Y3vxlsWvemknu/Du1bjhk23oVIlWlmBqWpaQpdQYMoha+kWkDCNgyBz6TlHSbIxVSESL82juhdayTIOIYQqGB68nEiPcycFZESAJFik09+lN+HmYGK4RCfmCopnWFExethQVdBwbeuKs/5ad395cADmNJUCZqoSG79wS2JXQXg0Wc3OaS1AZUDJPmmZbVkNwMzIrNCeeUrr6WFgyuRnEVPXZ+OZEbdeIWGQ6BKeUpW08+ge3PTsyQ9hXbNxJSY6UyiyHKMzY1JQjoJzKAKI2bAF0/3FMkEikC09otB98+cj0Mqo0rTa4IYg7IWlu42SYXRsxtS+p9/W36FrKoPvcT0c7TUSiAp6BNrvUrVOtdJA5ihgQvbaBaVS9nrCgLQIQWBafdtuqZYluXuAgry8hm65kS/KEMVQqsK81kCakAmw5raHPnsdCSrPeUwDUz/xzGRhRNpW/ulvn6Sq4bP2pq23embXzktBobdoiVLAzZvvwdZDO0/aua7Zuwnr9j+LggsogQy2+pFzblqua2AQA0zMNsEVgeKE1Fq+BoKDdiy4oYdfre2isqxN6e+0/zU50r7xcijzo11vjUt650ICRdo1jL87bpnm8KzWXs0ytvAY4uupQCR6XNiUZvluqT4cRQ1tJ2cDK5BxvStUUiEF2hNgHZctGzz3T0ql9DPbZKJroqFcK3pRUutlFzz1haAUzRGkUM5dkNAXUjpAPd6eQpFlODx5BNduXHnSzvOJPWsx1h5HK8ulUiUyykzZjD5+EYCUBV59uuwjRy5kTKg3H7XqE2ImctOMle7AjxvrMEPJCBwKzJhyFDuy7QBJCVjp2JQKujNTmG7hckxsi2cd72ITBwuB1e1X/DEETqlJzyBzLwQsEUYOSOlrS0ofQ7jaHF57dw+Ilx2qlMI5/QvTREyAdXx2+6e/95Wy6kSuh5tM7sUBw6o9K8mHnq0L4W/OBvcCsaeQU4ZKKsmIcf+uJ/DEnrUn5Ty3DO+ECJxLCADKTjSSqN7OeTuiQcEH0JuYk2WN3KVA4YHKuoC6Wo+s8qqIwzcdkGedXsLav3O8TgIGQ5pZKWIIUc11gwfOUF3DJfmyB1kVgAhRSOf0uTD7fvRsxog00wqlzYjDa+upWxjTsu8zM9jsVwFQIuhUHdz7mR8mdpUA6/ht6eBitKvKPKjj/7pb/5qJJWGgVUAszt3xk4jNtta9gP43oGMhZLoCK2Bh30J5cfwQLn/y6hN+fgePHsGe0Rcxr2dQCi4MAHuAEWigEBYIiwMyYUAxQyg+X/dSNmCtnEvl/jOALVaB1bI3eIAgInAAiK5PrWINLraej821CEHIOnOB6yZ29dYeM5vzMvlgQuZ8oF+AARAE18dmrSox107HmXT8CvF1F82+lVJaOpvIfS8MODFb/BSzKqyBk4RRKoVFiV0lwHq5du9nrqLevIASnZHNILCwD+LWOqfqeAY7UNI3PRvCwWZ+6uC1js/qejxm85SGAtuGFsTOJSw4x4YXt+DhXU+d0POboRlMzExgrD2OjNm4RsqQJHPcQmDFIBWcl1l/I1Fa48tNQn0+lnR6D8uMngTMh0MX0HA4Ic+CDHgxa6BgYRNXMySHzT5NYJxdoD6InRHp4zHXjZXvOk/CFpp8NJGU2TfcdzIRmEQnmxi/jkhfP4LSYybm+x2jMw8nsHZTRUCi3HhohGJD8BiklNk/oKRCToQH/uhHiV0lwHoFMZ7P3UjWNVQQ7XqwdjvqgXT7VFdmFUsp/xJRxn3QeUDKvh/EhrRHYvYrulwlI8Y5/Qu3T5XT+Ic11+Lg0SMn7NzKqkJHdVyukgjp7zerbgrKBK41U7LnoZTy6Q5i43r+fByLEjZTWty+hAzzCGJMmu6ErpOOLbn9SjCm9vuVTXUQty+/nXctxagzKFLuJfZ8xL/EMCl7bErM9qZwKIxeiWkxL/CEzx2XiGPLipRmphaYAbeQoBz7VEHYT6FUJc4dWrIozbwEWK/YsqzQrbUMqyClDJOI1+gtU+BwBZD0cjeRv9md9lWQj8TB8jmxTytkyvDi+KHlRVZg86EduHfXwyfsvArO0ZO1YFc86+GmWGQQTlGVmR270bTBB8s1ezI/3efJ/bSpCvaz1t0Uw16EYYCtltVE7DW0LAsyaRfMdozhc+NYxxg9ZwxTTyyBY8/Egt9tpoaLvwcACKNxxi6cRXrcgniUXkARM6ykS7TsQoDiKL7lvhs+xnnr7313JM26BFiv2NZ8/hZqV20o46roZepwuZv8bNZdJ8AsYBKwKJCSSLEhiuO6mzzCPndTc8YoOEdOmUx2JnDlupuwfdeOE3JeEwfHoEQ+wcQgFa69B86cCwqTy43yrFGMGyu1ZQcT32O77A/9eTbJnaFAIVi7nEKh8+hyvdjmgZnbVU9uhijybMis3IrUGnpAObeNosYfcZ5Dd+pJuFwYpHRwuMjCehXVpjK4eBli9zAIwpNRpnUs3CVO6N/bUmLxQCJXc1nKdD9OW9Q3H2MzEzqnKFAd1coCnoaIhBMnRiEy9WdBt69ICwvwEiTWnQGAjDJMldNoZQWeH92L+w49gbe9ZfmrPqd3vuMd6DzUudZ/cQ01g2Cy/zsCsKFogcFOfhPRCwAh3mdYJ2gnuVWJ9v8mt5ho5R9mK3slAsJC6jALv6sG0K3WoaZBFh1sULkg0Tk4xzXYv8/A0+6pBENl74WuFVUVjIIIKlEYKPpw72euSrGrxLBevT3wR9eSi4lQnNQcOlFhVrR7VgdPZ+d22VX/sMdhQL0okO4lBoqsQCvvESbGys334tmD20/IefVkrUXdOFA/n+DFAesh5dwhn80fH7eTiA724Zt1hDlu5HtwkFWwsCkDqsuN8syUfMmOK3gms5hBs9YmRsdj0hWEyMUn43MNEmBr48GBe1o/H6oVd4lbIKDgM/pVVRUeveiGBFYJsE6cze+dj1JV2oWQYJm/IYdZu0I2b8g8eYNkQgnygjQAkstD0rEc7Trp+DsjI8ZkZwJvnHfewp2jL+D6TatOyDl9/eN/PiL18pnZLFyuD1QIrVsmemnNUiUTyqklg9gxgNTeE5fW4VM5fXpU+L1+a2VWWM14mtwoIQmSzsP0dWk8KRv8hohxBMPUBESpCvUUDqVsGkc4SPZYDHMkH9MTuzAR7KtSFYpU4JwA60Tb/X90NYnSk8GlJBA3isa46I4QSLF73jI4qkWDSX2IlvPJ1BQKm3o9/X055Xh+dO8wgfDAriew4cUtr/qc3r74LcDxKlrVmZJY18b8TSc06aUz20iWKK4KDILMLtUBfhsLGDpc7oP7LpZm0yp0MhiU0p9yrrqy6ROe2UX91xpOyo41M3uX3kbmg59hkidTkFYRJcUG1DJEXGXrMP1/dhzKqsJTF9+Y2FUCrBNv6y5dRZUqfUpCU72b6JgFmwJom7glJFCs4KLbYe2cXRmLkilNLZ/oID+TnrA5Z9h/7CC++ej3T8g5ZcyNLHFOYgKzmsdBEN3W6JGqhd+DELM9L6XHQsj/TbkANNzvKihhUsF/Qvonw6YleC0xq+7q41S+cLvpfDQji9NP4IBTOSkYm/aglL5eippqHXVKCpTXwdIZ+DaBFKaySJ9PqToYaPWliZUA6+RZK8t1dg5Rgya3uUmZNAg5yQDLQMjnXYVxD9eSqhYnYZ3QSDqvEDln6KhSWnkPnjn0HB7c+cSrPp8FvfNRqVphtwvAzU7ASDxLqse+LFQRYlZB5NmmTSSNYz42fB00yrKqCUKOkbnUCA5jYxowJUg9IAqVIKjxfKge03KRp3AN1MbTzPbKH0sDDfXsDFF5u0s6diKCRHj0FGnflgDrDLUnLr6JZlSnVrxsnq9RfArObfJNBUwdGXGgBz8bhRFPDEyjPuuCntM/f/vYzBiuXLsCW7ZufVXnc/cfXEkz1bSW1PF8Iq6/a6BeVn1K0BQnqqOdxOwDPs4V0KGuT/oYFgKN91BFQ4KqHDINQnQMUQUrmO4/JTVZhjliXI6RhV0lgnOhuBxorpfTfSBxw1CqCn1Zao6bAOs1sAIFKlV1FTYDiGI0NqwrpjjWxmGiwl6ZjcKQK4WxjRsA5xIuJ8qwet8mbGy/+hXD84eW7ShVaViMVUPgKB4jtSx2X+esY0RdtZTRyy2Lmn2ya2BhllIjwBcDGCQ2DK+CzhA2R8yuVpoFCpgqBJt+Lvp7xJwPm1iiPh92r/A6hA+hiKXZ7cOaxOh8EVzLOI8LQQTTrobqzyg8/Nm0MpgA6zWwNZfcQpUoVKbjsashZI4IhqvId1Vr1unySZU06y1rOAwpECswa5ckowytvAeDrX4ppcQP19+C7TtfXTLpXX9w5dsyZsxUbf2dLF36VdEyv0ln8MRImVq8hkUF9gm1vmjcJ3G6FUEOlv2te+w+H7uaYfo9gcFCRl5G1wNqNmrq/UiBmeL0fVJWkya6DmHWu5OOEbu9+T5xyf1Bdj+7FUvUInh1scbXq8FIAqyz3Bb2zXfKpC77O8gCDzPCFXwdHEyZj6tdC4PB0hVd0YmkLvalw9E5AWMzY8g5w/bh3bjvyKuPZa35/EpSUOio0rhgKgKHKLUgqpFUXUFpx7CceJjUYlxBnEsUWOmKAAkzzqPvkVqcDA74BH7RQkGPk6srDI9LvCZ9oEkTXYcw693ngdlD1ddOggC90zZTyrin5H1YQcM567bzBee489M/+EiaRS/PUtecV2n/5Ou/Kb1FS7dqf9VXoyGMUnvb/U0EparAxKiUogsW/xT+y4f/Ld6x5NV3Bv6Zr/+GZMToyVteRWEuVd9XaQ2NcGptKub4YNeGzX2NTpZJranPXNfSurztqo11X7gtuYKJYb32tqBvyCWTvqwZWmdTdU+nxico+BCZbO6cM5RSImPCtsM7ceXTK07IOT3zf99JBeeYbE+hVKWLv520p2YNc15icTL+YNeGL6WZfoKP3bmGwUWtX8tgjaGS2UuMkiWG9ZrYe7/5W5IRIWM/e6L6wHovP5uMKC/nkV17bJvArRKFSikAoKHWAK76xN/gzQvPP2Hn9o6//udCxOgrepFz5pbxiV4eIEgjjwr6Jb8k73qFjO0EEy6Rhm9xDUZmoVXB9WpXbay7JLGrBFivs73nGx+XVpa7FUMY8biu8SUjUjfXJKp346xPdImnZ7uqUORMU+1pfPQdH8RffvTPTvj5vetrH5GZsv0neZZ9ueAcOec6xYKOv/Nz2J3RZDZh7tYML/X+cX7S/cNL0CDoOUkBukl0tLOzKn2JybRwkwaW142gpSrRU7Tw6EUp7yoB1utsP/eNj4tu/8Xmpjb9C80dLl7gylTuI8jNCpjYrAyrmyrYfCml9GolEdOC/vn4iw9eil9b/ksn7Vz/p+996vIjkyMXjncmtXhe2Ba01pv0Jf99vNvU3zuebWpMq6foAZtV1ozY4xgjCpBT0CMyzKGNriP0UiGDoERqLdy6gUtEMFO1sT7Frl6VJXmZE2TnzV/6/j1H9z/VSz0698eAk00f0nmfQRMKl4Okb3r7dwpdxWji1ZMWfb+ajHJUpDDY6peRiaN01bqbTipg3fHp718E4KLT6fr8/WNX4fInrwKBUeSFKFVBEfvVS/HpB07uxnZtJu8Les1Gw5TZN+qIVwUlcodLVb5mcbUz2VLQ/QTZqt+7YnV/0YdKKp22oExZis9PNPLH5LrEsBiwUlY+OXgwu1TvIPnSqXsGsTKTU1RkGUamjoKI8Pjetbh1y33pohh77shu3LDpNgDAYM+AdMpKJ74qJ/AQ5JeZBE9TD+rlk7tXQ1ymQ5Tcb8qDrHoq+zz79V9YlRArAdapY49/bgVVSkxshnWejwpyFMXH2rU+vCn2ZTZg5pmVL8mpdRNWYZ2K12KHMIqshQX980VEcO2GlXjx2KF0UQBcseZ6HJo4giLLMT4zbpI+lQOWWI/dNF61HW6sIgc1tXILul9b8mtyu8goT0Dp9JOFffPThUiAderZYE8fKlWaDHWp5ygijJSQfcorpfv8hX3tLMkKC+mc1Em8bG//lDFjZOIocs6x6cBzWLnlnrP+etz4zJ14YNfjyJnRqcq4eWBYXG0lbMw1QdAoI+yB2B0sqxWLWy1Bqyhj3rvvM1cndpUA69Szhy+8nkopYfu11O7j+GYn0fEuKz0Svmulpch2YJ79freTw06+SirpqA5u3/YA9ozuP6uvxw/X3ozR6XEs7FsogFa76GJLYQNX01VHhbIwpuuOsLlCCrVV3Nka6Qo6VYmhVn+aGAmwTl1bNrBkR6WqBlUANPxuettFt73prKzE1QXPlfYUFunmnEFEkGcZth7ege+vvv6svQ5//+iV2HRoC3LOnEvYmD/mBjAIRbkljbivops11KUpgXqgXYlCxowHL7wusasEWKeu3fUHV75NzHJ3dzp2XQHT57FHT2yjZhBNhVmy4cO/6wz4HCQszBke2PUknju8+6y7Bs8c2Ibbn3sARVZgoNUnOXtl2EAANBo/q+/VmEel6mNf78JT+5ypT1zz+ZUJrBJgnfp2/tDSRaXRzOqq05BYAbMbh3zUnUR82/ZZJKb8U1//zIjRUR3knOHg5GF8Z/U1Z934f+vJH2L3yF5klGN0ehzMGWxfyKjfh3glBddyy8nFNDxj3LjbphcN19M0WiVO0ysB1mlit37quyPKdggWxAzLqV9SraU7urYRJijTyaXblakRNRv7ZUKeZWiXbSFkeOT5NXj0+TVnzdjfvvUBPLZnLZgJ0+WU5JyZLjpN1U5WwiZQPiV0S8WEgUhG1Pkn3IfJV0ElFdZ8/pbErhJgnT624dLbqCNlt6Zll4sxu+olQdwq4qxmP8bWFzENHDjDkv6Fd41Mj+L7a244K8Z837EX8YO1N2CqM4WMcxRZgYw40Laqj52VwPFKpHpbI+iHUDPUCDGq2vUL9iFKUJbVK60oSpYA6/W1+cWQdg+gpeqihppGLbM7rhWCWqBJjlliV13bswvAH5w8/OGCcjy5bwNWbf7JGT/eN2y6A1sP70BPVqBTdiSjPGo/37VA6PpC+4RcCtTcbdcyUkaxVNnIfF0iGUF9omBtShJNgHU62oMXXUudqmNE/AhC7FzB2NeoRXXrum+oMbH6qjoFAGhAUP+XYbBnQEpV4oZnVuHg0cNn7Fg/vW8TVm6+B2WlwJwLsy5An4vu+HhWuHLhXXabP+fTTOz1MI+goPmqLsGp0FsknfYEWKex9eU9KE2aA4UtoLpoEqHWMsEkLQZa6lZOOGq2Gmqtk9MLB4CMCSPTo8iIseHANqzYeucZO87feepa7B8/hCzLnEsIp58ftqcPx1RcozbfRlCMuqq4hQ+dZhK65lYtVcsykwm4V0qlLjgJsE5ve+Lim6iUSndxiVxBF6Vy3WrCnB8WXdPmW5yzcRzte+R6Fdq27FafXLMLRoYMBeUgYmlXbax49q4zcozvee5hPLVvPTLKQBDpyQpkZBuzmhIbFt9YlawOO4MUu/F0rcvItxfz1yeM2sdReAHQUSXytDKYAOtMsPMGl9ytYLXPu9YEgxRE2w6KTANloxhgG7eaMh1lBfyUMm3ZPcNSYChlauRMp55SlciI8fzIC/ibh75zRo3tc4d34e+euBKT7WksHVh0eVkpELFrxkowY6c4aqwqyjiBpEyGu2atirx0D1yzEDHa9XECsG2Oq0gn+a65JOVdJcA6A+zO3//BR6zigr/xaz3rXNNR7TpakBJl5Wl0YFjDnooCyZZd+RaklsgZ15AYGefSylv4yc5H8czBbWfM2N6y5R7sGtmLIsuxf/zQhVmWGRVQ/RhQsM1pbUsyPY4EW8cJ04LLvgzfNUWgetWQghZefqHENcetBOcNLX1/utMTYJ0xNtDqR7vqBLEoDuoNOZLlQw2M5pJSMkrvscsSZEcSETLK0K7aWDa09LLdo/tw1dqbz4gxXfPCBly34TZUSqHIcskoM2U1YedpuH+7Vlum3b2EYysqToE3CxjdK4w2Eu+TTdtqBqs+dcXqdJcnwDpj7KELr6OCW7qFlCizdB5K8TK6m3DCuDBawZRE6RiLmzRsmo2aSRrWndTKeIxL+GWA8MDux/HUC+tP+zH94YabMd6ZQJEVmGxP67IkG2iHjT+FPbe9SgMbRuW4brQq669Dd4dv0WBn4lWqUjh/aFnqMZgA68yzpy6+MUombSoNjM3mYSF+zItJX2C9YqjsWhdR0FVZuVwhMrGsVt5CzhmOTo3hqnWnN8u6bsOteOT5tcgoh5JKiix3ixlhVaAHp+YUB+88MuKCZmXGzjdX9Z/QW1dSQaHSLn+yk25JIvl1sL68D+2qjQwcSO6q2MmjwD0U/7sQHDDpJgjKEwILZM6t9E0ftCqdQkaMUpXSynJ6cu86fH/NDfi5834WGWen1RhOtCfxvadvwMTMBAZa/TLRmUIry4MyS1XroqZLASiQQQ41211zjKb83IBdUdAHRC96SOox+BpaakLxOtm7v/FRaWU9YLI1Ncq7ImKXqQyIEddkwgPJZGITcrFJESb2ElTuOpUCAkTpzs5DPQMYnRqjPM/BIFQS5Iad4tOPAK0e2p5Ab9aDjiqllfUEtX/skkRm71YRvE9BN+joPSAuSafoIKqqghKFtWllMDGsM92GigFMlNMoODPzxkrrGuUA0rlC+lGuggCLiuecmU9MZJQGwjmmgVACpkaAcwn78h5UUqGSSk9R25ZM4BwkFTW+8nEg1pqqQWyBTLTt5T8AOTqr2G0zPYigoON09mzKqkJf3otW1iOqMx0E132iqCuwdDpXCj55hD0j7RpbrgGbj2sxABEFEUJVlVh3aSrBSYB1FtjDn72e3vvNjxto0HGSKDQsyoRj2GVr215+DliiZ74OxguJWyMjM8liEq2ndCvL0coLmSmFdOKpCSAHzEwDiTI11eSAw/pFRXTE2rI5CRohdsCaP0foVs5R7ie5Y1s8sHDhC0dfRCsvwMQuQYTgV0fF1HFKLSboEhSIgnHU+/BhQtEBfLFjqhyElapEX6s33cgJsM4eW9y3EIcnh1FkhVYBQNC+k2wkRsXPetfli1ywPVhLBOA1yCXsJErWqRHHpo5NjyPPc2EQ2lV5/C7h6xxFIACc5dh19AX0Zj0AoTZOypy/cZMphEBVJ6ewK4EuThggvP3dXh8xwKVE4bFUgpNiWGdfLOtj0pO1GlQEmjrc1dkJuQiVnbAU/b/eadkwNNtzWcwql6jYJcSp7RICuhkqBb0D6wyOHIjP1stZovPRP3zvR3IqsN3nU6oS83qG8JM/TI0lEsM662JZ/RhvT6KVF27OhJ2dpZHWcK1MmmtbSa03dPOEFSCoRTz9XMIYjiJRMDR2yq49nHW+lgqgSYIYlzQySoFgpmzjJ59PYPV6WMrDOgViWb2tHh97Ma6MlUb2pbfQonxgN6V8REa593wyJAftLdgoPPkiIGWD9cwmY0n35rPfycatYmFdqwgB2NTVGa0ou3+b82RvKScvbDuJ2gRMrz9hPuOPF2Zffu8cl9aYb2Dj1ikDYaESg12gsFI+ALuzt/4x24Jn4gDE9XHqImjTfg0+fwumaAAgKKWwbGBJunGTS3h22zeSrVQAACAASURBVHu++TFp5S1dm0YwBbtNzxTNeMQ9byRygPxfLR9hF9cJnEHDMPS6mSUWLHBAwJbTeC8JRApK7N4lOIa44w9AcYZAcGz+eHw2FLtPsQNuiT5joSo+H/sZsjEmM3YQFRxbcD7Efq/BKiK5uJZPH7EOrv1uEFCKglIlnv78rYldJZfw7LYMjKpUOoFTlHPzqJZHJK74OY5UaYTw/MPDh3WmGELBJwPNLBhmp4BgUgcpFRYkhO1jzkEjNbmuLjXCbq+CEhipHTkFiwWq65jr7mM9ficOe2zBMnvgCVxEJVwLR3XLj3oBUWWGiKOUkKqqsPYLCaySS5gMay5ZSaV0tOKCUXQg199eGa9KGQdJuWnuVTL1NkSiW6szXBt1V6kDePnfoKhXi2sqECnjSJoXKXcsTACz3YaDGkh7LMqxGf29Gvu8uKrdrzgnz0ek7N/JFb2QczglkCxm8xNBcbM/TnuSRNYJJrO9cufnX+LO1QMrTDmTjXEpozOmoKREJWW6URPDSmZtqGcAE22dTGqLm11Y27IhQuDahYyJtCQN4pITQ41MbpJlSkFeEcUrZS5oL94Nc6zHkg1SiNf22Ei0KLdPRIyKfWDbhSCsyxnmSQVHIgyfaaYiduWzNTwLlbBpLcX7q7f1sOcuEpwDcS23nU08TL9fqRJvmndeko9JMaxkUSzrGx+TIsuNFrl90rP3tiLdAZPoGMaTKKg0QZAk4DK6xWlDeVwThKU94pHRAYgIap+Bi5G57yELhtK0SOddQaLgfBRCBfpo3dGCiE++9+dWS+aErcuUuI6QApACwvFjX4PpDld1xeSsTnvBOR7/3IrkDiaGlSy0vqIX02VbsywTRyEJ4lLkPXlfwmvWtEwPRHJdp2vsgl3VrmcXFE/OKNnUxHMcs5FazWN4DAHOCBlQIvLZqxJsLfZYjFSxcd9UV5KEqtWEU1ywTBJRLhHrkpJP/BCrfyW1fAsJypDsmNrBUJ7XCdCpUo/BFMNK1miPffbHxAja5FlmQSYJQBgsCiymAULQfTgMZ4eXNkohEIr7r7qeDOz0zJm5todoSjv9c522YH66bex7tX7wBNOs1MTVDMMhi2BB52SbTsEKXVphDJiOyiYVQcx5cQByIu6ryeSYuXMXr4dPJhKnhVxNXEuM6ys+xaQ4zZQsEsNK9prasqEl7983dvCpLCsA8Wt+YtQZWNgt34N07zwtJeNZBZngt+8E44IAgSvkWRABQe0d+zi0hKUtJqHB9lkk87tlfdZdU/WoEYLokIQeqFGbYJeRQPAHK84llGBBj12dpD505bcL6geFPIsiYii/wOlYlM/jIh2DM6SSrSusCDOqjfVJPibFsJLNbb/w978jSpRe8QuiwdJIkEPZBjZsJdiKGaLCVIfZimHiqsRZbxo0lxMSCMQEJX5V0qVO1MNaDTsRNChSNLkFTLoF1xyOg8nz1H1llWo87rk7FgKlUhhs9eHBC69NgJUAK9lL2bu/8VFTZ9ggdxI4fy7wbFb2yHTdIdhSG6NIUA9+Iy5HCcGCwC6mFBbDCML2ZN4J5TCWBBUnlZKVdSEQCZR01/xFVZASxM3I+cRG2kWfG5TBZvFJsCJe3JCNJI8EAfy4Ipwj8PQRP6/o2q7aqYNzcgmTHa8VnKOSStfZUb0U2btoEPbARcqtnpFbVpMap4hzzCmqQLTJmiouhpEgjZN8coAOlhtAIv8pgne7bPYXzKJAWCgtFMCfBJDJbGJgZvvANXbyz/aIbDmTySlTolt1eSkZ5cfMuKEu11aku7JRBB1VYqDVn27CxLCSvRx77zc+LnmWBWkOFBQxB2U5pBxw1bhCjRnVmZqf2NHqmEvf9MyLCCDhmgZnqMgVqJ5GIKn8cVOEC0Gpsf6NDVOiMDcjPGLxrNIJ8hj/UsSDMrOJZUWLDzY+Ro5kkaCbYyqVYleJYSV7JTbUO4DxmQmQ6wYjNWEXCVbpwgnaLfQSSs90g1es0iARJEhQceNTIaTLpYRja+higjoAzhJHqEKGReLVIjQTM4wtZIlUV58IGBJ5pgZlRQxVHKMjH/gXZcCXwtQNoJQK589f9sl09yWGlewVxrK8/ju6uBOZlTu36udWwcJIkWdQ3UIu3ZxrNmjruoHm0I3qhsUuBarGyJxNIKUah+uSfBGY0iWvxupz67kWT6v32g6C+8KO7lUmvWL1JSnvKjGsZK/I+os+THVmdFcYQhfIOE+IbDyKa26ezQpn1FutvxT3mhuApEsgsBnsKIqV1QE3PIJwn9LgzFIdc1yf5toCgXgtVhv/a2aUcPWDIkBHdfDGectSCU5iWMlejf383/+2kBAyrqcecA0watJ3tbITijLmX2phv4HQzAVs4hUU/EZhNnqk3eL3KIHmA4VoJLPE2qwrHLCk4HM6TGVcVwnHqw7Y8fkppVBJhbWXpJXBBFjJXrW95xsfM+2s6mCiGuJUIYNgH2z2xYVdEBQXIBO6VxfrIf3udlg2vQBNjmZYqlNjX6Cwe00TPM6iQWoLHaPvCv5uI/tRjhnVHFMd9+qU7dQFJ7mEyU6UKdEyJwwO4kdhwDlmJR6XLAsJ1aS4BgzKlcq4T1PdbaOgWDkGCftdUcNRxK0UUWtGGjl8YvZJ9dpDiYuwA9CJEmRrwnv+72EXZ65F9XxXnY5UGOodSDdZYljJTjTL6skKgE37KSIDMs0RJGogO9Y7i8X0gj24fcYfJhvgb3QYYz2EJr5Xl5GxGZthiD1iVO79ueJjiJXYg3023O41zqccK5wqZ7DhkpTGkBhWshNqvXkLnapEYSeriJdeifiD6o7UBMFnQrgip7wbKBIxIcJsYfpa+7FotZBqLeFjtkUB4xLomsEYekxPRjGMLoKRer+eiJCBxTTloKYiHH9sZKUBRVBVFXq5lW6uxLCSnQx759d+XbhLSz3mMl1sZrYbIOZWmCX61Bwba3hfXlHTQqq5nXIcW6KxC32Y3tB8vPU0DC0Vvflf35vYVQKsZMmSJTtxlvSwkiVLlgArWbJkyRJgJUuWLAFWsmTJkiXASpYsWbIEWMmSJUuAlSxZsmQJsJIlS5YsAVayZMkSYCVLlixZAqxkyZIlS4CVLFmyBFjJkiVLlgArWbJkyRJgJUuWLAFWsmTJkiXASpYsWbIEWMmSJUuAlSxZsmQJsJIlS5YsAVayZMkSYCVLlixZAqxkyZIl67LU+TnZSbMdw89jvD2Jc/oX4Px5y9KAJHttAWvzoe0Ym5lAf6sPP7v0gtPmJLcd3oXRmTEUnOPcwcVYNrQkXfmTaNdvvA0/XHczdo++gJmyg/6iDz+z5G34w/f/Ln71Lb+QBugE2vYju3Fw4ghaWYE3L3gDlgycc9oc+759+3CYj2F8ZgIL+ubhZ44DU16y8/Od2x7EzZvvwaaDW3Fk8ihKVSLjDIv65mP5wjfhg2/9ZXzq5/+3U24wnjuyG1esuQ5PvLAOhyaG0a46YDAGe/rx1oVvwr/4md/AJ//px0/Kd6/ach+u27gKA60BiCgz0gCEQLM0RKfg//ZXqvdhB4HItGAP2rRT+D6Ct8w+OqrEF375U3jH4ree9HH/D3f/Na5cuwJDrQH0FT0gYlRKYbIziUop/OkHPodPv+9/f9n7fXHsEG569i6s3rcRByeOoFQl+vM+vHXRm/Abb/9V/PrbfuWUnJS7Rl7APdsfwZp9G7Fv7CA6VYm+ogfnz1+GX3rje/H+vp/GBRe8/If/91ZfjxXP3onnR/dhupwBgzDUM4QLzvkp/OYFv4Z/+d7fOWWB6o5tD2LFM3fgmYPbMDx1FJWqUHCBc4cW48Nv+xX8L8s+hHe+4x0vD7Ce3rcJX37gW3h6/yYwMfqLXhRcgIggIiilxHRnBtPlDC4456340ocuxf/w5p8/JQbk9m0P4It3/iWOzYxjsDWAIsvBRBAAlVSY7sxgsjOF33j7B/Ct3/nPJ/z7P3LF/4Xtw8+jN++BEuURhAh4iQdECET+d9G/GzgSjUQgs4HoCwmxaAWPWAzCeHsCH3/nh07KuYb2rSeuwlcf/DaWDS6BEqXP3VJ5zlFKiWPT4/jW7/xnfPCtv3zc+12x6Q589aFv4+C4ZhJFloNAUFCYKdsAgA+85Rfxnz78xzhvaOkpcQ/uPbAP31x3FW7fej/G2xPIKEMrL0DEUKLQLtuoROENQ0vxf777f8bnfulfHZ+3sG0b/uv6/477dj6GoZ5B9OYtMDEgQCklpsoZzJQzuOCct+CPf+Uz+Mjb/9kpA1QbDmzBVx74Fp7Ysw7MjIGiDznnDlNmqg7GZsZwwTlvwdc+/uf46SVvOz7Auuu5h/Bvb/t/0VElFvQOQQRQoiAQN4sIABODiTE2MwEFwX/5yL/B77zrI68vRR5+Hv/Hj76AjioxUPShVJU5bg8AGTGYM+w99iJ+/+c/gS996NIT9v3/3+NX4euPfheL+xehUpUZ5eMAqpBqSfgZ6kY0w9aCq2hYVx3tDGgRYWR6FH/1m3+Gj73zn5+UcT80cQT/61Wfw2RnGnmWQYlASSXWJQQUZZRjvD2Bdy/7aVz1ya8d137veu4hXHLLlzDQ6kNv3gsx96E9Uya9bnRg/DB+8Y3vxdW/+/XXfWJuObwDl678j9g+vBuLehcgzzKIiH6ReXaBQESYLts4On0M73vDz+K/ffTf480L3jDnvi++6T/gjucewHlDS1GqEkrMw8zcAxkxiBjj7UnMlNP4g/d9Epd94LOv+5hcs2El/uv9f4922cGC3nkQAEoqfZeKAKTHo+AcRyaP4qcWnI+/+7U/x9veujzaDzfFqf70zq8iY8aC3iGUqkIlFfpbfTJdtmW8PSVT5Yz0Fr1SiUJbdTDQ04/evIU/vfOrWLXlvtd1YP5x7QocmxnHQNGHTtXBvN5BaVcdGW9PymRnWphYKlEoqw7OHViMWzbfjeeO7D4xPvmxA7h6/c0YKPrRqUpUovRLVf73l3op+3sV/Axfdpvgbyr8jmA7+29VoZUV+OZjPzhp437fjsdweHIErazAgfHDC6c705IRY6DVByUK4+1JGZ46Kv2tPmw6uA3rX9x8XPv9u8d+gJ68hZ6sx42pEoUlA4sWKhGUqkJHVVg2uBRP7V2Pf1x74+t6/+05uh+fu/Hf44XR/Th3cDHAQMdcGwXBkv5zFioRVFKhVBUKzvGGoaVY/+IWXLryL+bc98rN9+Ku7Q/h3MElaFcdKBF0VCljnQmZaE8JUyaVKHRUif6iFwv7FuDyJ6/G/3Prf3pdx+Sbj/0AX7zrvyHnAvP75qGUEpVU6Ml7ZLIzJWPtCZnuzMi8nkGZKdtY1D8f24d344Y9d3Xtqwuwrly7AmMzE+jLe9FRJY5OH9t+bGZcRqePoS/vwbyeQfTnvRhvT2CiPSnDk0cvm98zdHnOOfryXnzpnq/hmYPbXrfBeWrvBvQXvZguZ2Rk+thdhyf0JJrXM4CBnj6UUmKyMyWHJoc/weZJ9PgLa0/Id3//6R/jwPgRLOpfIIcmhz8x3p6UYzPjcmx6XP9sT+ifc72mg5/295kxOTY9Zv42JqPT4zJq/z5jfp8ek9GZMRmdNq+ZMRmdGZexmQlREPQVfdg+/Dz++qF/OCnjrq+54MDE4U+8Yejc4YFWv3ZXRcBEWNA7H/P7hjA6PSbT5Qw2H9r+kvt85Pk12HZkFwaKPoAgw1NHLxubmZDpsi17ju4fniqn5ej0se2j08e2V1KhN+/BHdseeF0n55/e9VXsHz+EBb3z0C476JSlHJ0avevY9LhMlzOy59j+4alyRkanx2V4avTynrwl7aqNxQOLsPHAVvzDk9fMuu/btv4ErawFJQqHJobfN122peAc83uGMNQaRKk6mOhMycjU0csX9s27TInCssElWLnlXnzhlr94Xcbj649cga8/8l0s7l+IjBhVVeLo1Nj2YzPjMtGexEDRj/m989BX9OLQxAiGp45eNtQauHywNYD7dj7Wtb+86cbrK3ox3p6UjiqxuH9h5BLqIDIhpwzzegaxoHfel/cdOwAFuXCop5/GZyZx2R1fxV//8r97RcHEV2MvjO7HkcmjyDmXjiqxdOCcD1uX0FJnJsZQawDze+ddu/fYi4v68p6R3Uf3vurv3np4J1Y8cwfm9Qxgz+g+vGFo6bWnkEsoI9OjmNczSFdvuAUffccH8a6lbz+hY39k8igW9y+Syc40KqmgRHR0zfhApeogoxwF5+hUJQ5PjhzHmO5AKRWGp0ZloNWHcwcXf7nuEg61BpYbl/Cy+b3zvrJv7AC2bN06a9D2ZNoX7/wrPPHCOizuX4jBnoG7tg/v3rGodwGWDCz6cN0lHCz6QEQXjrcncXT62CeWDpxzXV/Ri4effwp/+Au/27j/HSPPo5UVODRx5LLz5537ZesSKqUAEjAx5rUGQD1DF+49dhAz5fSX5/fOo6UDi3D7c/fj0pX/EX/7W196zcbjbx/9Hr752A9wTv9CCBRmqra0y47GlP+/vS+PkqM67/19VdV798x0z0isxjCKjXGOs2G/7E4eHuUljvPyTvLMe+/knUecxFJsDFrAMS+Jk7wEY7CD2DGSjZDYbMCA2bQwo4VFEgKJRQhJSJphlxCamZ6e3rur6nt/VFV3dXdt3dM94JP6dOaop6e76t5b9/7u9/vut9QoIYNVFSBCSAogHlx49Vszx/DxgTPwfvbk0lfffx2fOfVcaw3r7Zlj+CA/DUkQuZkSmu1XxnJopoSZUpYToTgOT05g1YH18z5h8pUiFFVuoIQ1+5XpOM1ECadjwSjnK4U53/tHe+5DtpxDJBDmjyolXBBLfTlfKeDGXeu6PvZVVa5RQmZVx10y4ScZpgWEAyGWVdn1muniLAhkSQmZtU3IRAmvzpZzo+VqBeGFsXmfe6ufvxf379+AwWgSYTHE72aOj5wSH1rSTAmNdjdRwvvTxQwHxADeyRzHkSNHLI34hUoJuUp+9JT4gqsNSmg+YDHmtpkSThbSX5ZVBUPRFDYe3j5vmtaNO9fhpl3rMRgdADMwVcisbqaEtT1cPzpnZpgo4XBZqSBbydlTwmw5h2K11EAJW7Z/bn6HICsyDEpYVao8GB3AlvGdWPXs7fM6aYydNxoIQ1YV2PoQ6IBrUELw3O774rH92Hz0aSTCcZzQT7K45aLcqPiY3mWL96Fizu0yvm+ihPf3hRJ46o3n8USXbY1E5t6YnDS4cbMQIKAklz1dU2UVIgkcC0SgsGJ6nNTQP4J2+huWQiNMGijMp2w8vB037lqHVKQPqqo0UEJDIW59mFSbswYlnC1lV2dKWYQXxFvuccYppyMkBRAUgyPm01er500MqKoG7KfGF9w/XcysVlQFC2IpbDqiaVo9B6vn1mMwmoTKwHQxPToUTS4xKKGFP0697USQFQXxYGzk4wNnfCsihe0Bq6JUoagKIvqCb/UDsmAc+k1UKAhKAZTkMmRVQTLaj9Uv3IuHXts8r5NHEiQWBbEBMKxeGb9TF+655vkfQ1ZkgMF9oRgUywlVOx5qGU6CBfOz+Gz7KGJa/KqCvlAcCiscECX8YPfd3d4t6n20aUNtNbWBJzIr9uNgep+ZERADCEuheUWrl48fwLfHrkNYCoFASJdmx5ORPlTUKoha/FNgPRXJWHdLZFWBnfYpCuK3NA2WnceD6ruFrMpYGEstSZcyo7IiY0FM07R6BVo37tLAKhUdgMoq0sWZ0cFocoShexk4OyLqOhEjKAbwfvbk1Wf2n+psdI+HYiwJovv2Ts2qgjboiVAcmVKWASARiuPftt+EPe+9Om8TSFFl00Rpntetex3NERW2ju/Cs2/vQSIUQ7acgzZ2sB4/1XnBs43WaFqVtruq7T1r12ZIgoR8pYBoMIIjU2/i+h1ru6tlmZvIDu2kdq5J7gCnH+sLRChXK/M2147NnsDlG7+LilpBUApgqpgZHYwmh2ubPdeBnOEM5AbgDkYHmG06XKiUrhZIsNbILa+v3USnhCPp0uyozErPQOumXToNjCV1Sp8ZHYwOjDADDXs4u7MCIkJZqbR47gvNnSxWS6gNiuPFyfI9Wa1iMDqAdCEzLgkimFV8c9N38W7m/Z5PILKaGG4tJy9P38l29RMQCEW5zIlw3KRdUXsLlexGlJp5l2Vn2OkGNdudgr5QAplilvtCcdy779HunugSeQSlDsabHd4znWkwzZ+CddnGq3Bs9n3EpChmSzlORfpGVOOgpUlLJpe+MBiiICJTytreLyQFJlSoIAe2Y3cPnRKOpAuZUVlVsCA2qIFWl2xaN+1ahxt2aTSQVRXTBU2zUhlQoTYOALlDCTMjILRGDgqtGooFFWSL12xSCbhR09Ip4XC6mOGIFMGJ3CS+uem782LDamyjy04/R3n4tc14+fgBxIJRyIoMAUKjFmTDBCzb2TSkjmvWwwRtfWZ1TSUgSjglPpTMlvO4ZfddXaWF1DzuZhsWdzD+VlSTHUBxnvDq8o1XYe97r2Ig0oeqKrNBCdl4iFbPg22AxmSLk82A1yRPfuWuRbIia/sCWYyt2R5qMbd0SjiSLmZGZVXWQOvIU1g2R03rpl3rceOu9bpHAWO6mBlNRQc0WxszyHyizWhdI032WgJBVmWkov0ugMUWthOr3wFAoPq3bT6fCMVRUso8EE5g73uv4u82XT1Pex/Ve+eK5tTxHF/74gMIiAHkKnlOhGJaKIqFlsEtw0OtNgddQSGHVd2ws7K9cqPvG63PlLRTJJ0STveHE9g2sau7zr7U9CM0/6094xxZMUKLZ0pEmC+5Yec6PHJwFIOxJKKBKBuUUDVsNIKN7Y4cbE4eQbeiVEB6KI7Vtah5zZrmFoigU0INtHSb1oYj27Hs8X+dA1it008DGdPFmdHBWHLEET+IGlG66TMCEUpKGdv++sfkqmHZDhZb7NoOn2VmGJQwJIV4MJbEwwc245bn7uo9XJGNycdS8+rM8L527wM4MvkGooGIDkBkO34WIcwQBRGiIELSf+qvJYiCVHu/5e+k/y/q71P975YmDGrdxQ0DvMoqB4QAfrD7nu4pWW5zhNszurMXeNPnW7v2sU7kp/s34ge770YqOgBFVWqUUFZUlzXkbovz0vREKA5FUTrvJ2ta3ILY4IhmiFewIDqIDYe3tW3TqoNVEiozpoozqwejyRFWVaiq23MmRxqhqNYGX8l6pXu8vstsUliBQQnjwShSkQHc/NydODt5Jv64RzFt5oaRaY1Qy67D3oyXFjL+xgTufeURRAIRZEqz3BdO1AN9yX5cGIAAQlWpIlvMjzm0foKA4fZAmob7QvFhgbS4NafHZRjgZ0qzSEb6cHjqDVy/cy2W/9ZfzXGn8AL+1Nliax5TtjRG9pQS7nr7RVy5/WYkQpqf10xxdnwolkTVfNDjtCbIbfm4D8yerz9Kn1x1wfhQLDVcVavtHxrpN9Up4cjJ/NRoMtK32DDEL3scuMGDc6kZrJhVpIuZ0aFoUneQbdT42SMYgwFREJEt53Bo+Ri5A5ZhhCCPD56cmsI6F1UwEE5gMp8eT0X6F0UDEfzLlutxZt+p+OXTzushXDnbqq2tod7kkWPb8E7mOAb1o9vaER85zzsB2snHaYmFV7x40ePXdLvfv7X6z7kiV9Hs1tG6HDQnzv5wAjOlWU6E4nTvK4/iDz/xeXxqwS/gIydOdMr8GUbPNKw30u/gis3X1BbVVCE9OhRLDbe4/7SxsZOdDdZFzk6egRO5SUQDEU0ToTZWhmkxGDatk4Xp0WS4f/GC2CA2HN4OPE644Uv/5BGsNJuVdhqoe0JS+5ojAJCg2a4k0T5Nn2BJ+7wYdV2bQrXxkVUFg7Hk8FRxZjQoSigrFfzdpqtxMj81/5Pfitq2IW/NvIcHX9uIRCiG6cIMRwMR3XblYig3uHm1hI0X3XFNL7q2c+mDNFvJTYiCULuzsxGfERACCAgSsuU8bp4Hum7rv9HOM7P8TG81rMs2fAdThRlEAmHMFGc5FR0YURwM5B2tWCubj4U8+ZW7FkHPcyYIQs1h2n0cW5FEp4QmQ3wKGw5vw7In/tUWrG5qACvjNNBzK2y6rf2bKc2OvfyNJ8gbYLngT9vtMV1PURWkIgMjM6UsxwNRvJ15D5dvvKo3G7JTRyyOmtvp1tq9D2Ayn8ZAuI8jBliBbAGwfkahedUfWrGlp1aWwyu2LspVChBIdLXPMTNiwQimizM8EE5gy/hObHh9O34ehdA7G9bFj/4TXvvgCPrCCRTlEhuUsPt98D4hX7lkAxWrJSiqApHEzoFTj/Osnx4qGIqlsOH1bS2G+Jufu1Pz6I8OgFmtgRWzOud+C0SYzE+vObJym2N+Km9FKNj06U6Opk0NiwYiqKoyJyP92Pn2i/j22LXdByovjobc/u637/1DeOL1regLx/FO5jgigVDrrmIL7PMXMmLE2jl2Tm+KrDv7KqxyUAzM0QOevH2GOrguucxNYyfq8hBftf0WPHn0GQxGBxAQRDYoYfOzZK9ryK2fbbT/tWVPUr5ahKIqjb6T7bZDd0VaENM0LSOMx2yIv+W5u3DDzjt0zQo6DdRtVnPoO4EgkICT+fSao5dtX+p2KaGtechoP2TE1FgVDIMSJoLx0aFoCve9+gTW7rm/S2TDFEzVhtrttTt37H0A+UoRQTHAiVDM9iSj+YIiCZgt57F/2eZ5OXvff+lmypRnTV73zm00KGE0GMHhqQncsHNd72l52wZJ9qaWdHGE73rpYax/6SEMRpOQVaVGCVWL505e15CXgWmjDwd00FJVBSIJ7kNO9m3TKWFN0xqMJrF1Yie+dOdf40d7fqIl3mNGujgzXgerNjLo2mhWGlhtW+qlv10p80U13cbCbtLUWIVV6JRwRGUVA+E+rNpxO0aPPtsL5dp9gXhcPDvf2ostEzvRF45jMp9GwDLA2VoUVhESg/NKkRbGhlCSK9rplUv/FdYORmaKszwQ7seP9z2KI1NvtnU/6UJx9wAAIABJREFUQRC8jam+WQgkeH+U3MYq7pKGtW1iF773zGr0heNgMDKlLPeFE1DYm0uBkVHUtnHcvT4cWPYkaZlKFAhkfTxNlt68raJTwpF0MTOqsopYMIZ3MscRFLX0ztPFmdFUdGDYSPPj6KQNN7AScLLgHay6AlhGkQOFVZB+ObfnKbOMZKQf08WZUYEEBKUAvj22Cgc/ONqbHdzJI9rjOrh97/1GGhfuC8fRYnC1mQOiIGK2nMNL33ic5hOwnv7qfVSoFDTvezfbpN78oKgFr7+fPYnvPnVrW/fLlvPetAl9nIrVYneZZkdGVms5ePIo/n70+wiIEkQS9TCTAVSVqvt8Y+10XGEFVUVusqd6VOs7mCkHlj9Jeb3Qh0BNY2HnTWq3gal151JmVTd9oB7IzBYamxPzYiuwEnGyML3m6ErvYNUKWNw+XFXVKoaiyQktHY13vxAjIHO6ODMekkLIVwq4fNN3LXMB9YRztGFx33j4Kex6+0UkQjHkK0VIJLmovVwDc1mRMRDuw4chh1ZsoWwlZ0EVWj1qVT1XVUku8e98/LOYLmawt42g9d/82K8BbZwTnddOmTj2+pG57wnvndAOg3LlAkJSCOlihgejyRFZVZqyL9gsKBJQUaqISmEMRgcgq3IbvlLUOWIBOLBslPIVA7SEzgBcN6folHCkUC3yUDSVrCpVHgj3eaOBLgCsaVZTa46u3L603eYJTld2c6wUiFColvDxgTMWPbPkfspVihPed0PNODwQ7hvOlnKcCMUwPvUmvv/aHXPS9rQX5GJkbG9LW7v3fkiihEK1qGlXrDReyirchxmCICBTzk4897cPET4kCQgSVGYIJNaKhjS+Nn4XAQYGwv04Ov0W/+wvVuP8Mz7j+T5f+/W/gKR76Ivk8KN763/p3At6YPSau4b17WdvwPjU20iEYsiV82xQQscHTvX5p+r5rZ5ecj+dFl9IJbncQssd11VDyotONK1R3RCvWtNu1/VQ75uJEk4blFCd48GRSIKuWbUPVhaAxa3PgdwbYHzv8Ioti6YLM2O19DQuPl0MLa1rUApAZeZUdADbJnbhO9tv7p5eRW7vOVOJH+97DPtOvI6Y7qQnNJ3k2EUiCiSgLJdxZt+pw/gQ5aVvPEG7v/YwFaoF5Cp5x59sOWtQwlQn99p3yUaaLmYwXZrBdFH/Mb8uziBdnOng8MGda9Ac6FQNrMZW4Zm3XtCO7cFsUELtRNDpQIdrdrx0MTP22rInyTy/Ldkg2fSnC6xWM8QXLOer83poXbBmSggwiDpeiXMGK6AHpeqPrNy2+NzrvsCD0aSW1M4FMFQt1hC5ch5nDZxxPjPvXf/Sw/j4wJn437/y37pPBdv4zrFjx3Dniw8hIoVMRlfVOiSk6ZKCICBfKeLFix8nfARk3yUb56UdB/TFOj/SvVv98IWf4L59j2EomkIy0nf+2zPHEA/FTLZKclzxkiDhZH5qzOxHRE5TzinMqAuB3AeWjdJ51y/meCiquzyoHsbL+u/1UmIu/XC4jmgY2OcAVhYaVnfk9RVbKFPKQhRFTyCiqDJ0SrhHBWMgnMD3nlmNZ958oafT1+3w6bF3t2M8/RYigXBruIATVRYIBbmI13vsJPofRsiTq3vHe9bGw9tx3c61SEYGoLCC8am39yRCMdvMn830ThJETBdnYO/0yM4TtcV9sEuHB8tHKV8pQmUVAolz8kS3dC3xkPOM9FqJGlhtWzrXPgkdr3iXvicj/ShVS7rHtftoyKqCVHQA0wXt5FAkEVds/h7Gp99uv0ns7cNOJtRjsx/gnlceQSIY06q21Lza9e84nDwSSMvn7Ut3xGVnYW4wJLUlr7x/CP84ugoRKQyQliUzFR1A1S5FeNM9JBKRreRxTvLMK7qm+3fR+fWAyblU7NQQ7zjpnZ6J4Wc13RWwaqWETF7MOp7a/uyS++mXbvojVliBAKGl+rKVaCeHyZGpYmZ8MDKwKFOaxTc3XoWH/uK2jjYEt+wW3ARcZrnzpQdxIjeJ4eRZ31JyH7TsTnaasEACspUCDi4fbWvpPP/uK3jmzRfwzsxxvJd9H1VFhgBqqBRsNoCYA5nJZPStswqqlYIg83f0gSEihMQgiAQ9D5f58/pvpE24qiLjlPgQrlx8mW37b99zHw5PvoF4MAYigigIupsLa6XI9VuLJKKqyvjdsz+H3/n4Zz0/TcckCB3qscdmT+CyDVdC1qvMTBXS40PR1LB2sucCJvrYVJQKolIEGy9ad41T++1snZYx813Wyw8se5I+ff1ijgWjEAUrw7nHqPF2UlsTmfysti/tVl+kTqHdS9v3XbKRzr3uC5yM9HvOV6RTwuF8tcB94Ti99sERXPLYv+CmP/kXz23i5iwSDs/DKtpu/4nDePDAJvSFEhhPv7VkMJqE50BX8/biQY5OvYkrt9+C3e+8jKpahSRotfuoJT9HHfDZJtukG0qzeTD042m3ABOBRKSLGfzzBZc69mP7G7sxNr4D/eEEFFVpPVkjw5ah0SeBqA3A8jLf2qeEl2+8CseyJ9Af7kOmlGWDEnppCIGgMlBSynjt4sfIk6JUL9No2S9ufxl6B63low2gpflNUm8QssFmtW1pN68rWa/47hk/X1+xhT6x6oLRBbHkiKZmw/7UgusnKyKJIAg8GB2gTUeewvefWYNv/u6SNjVpfaU4aPZWO19VqUJWFCRCMVY5Vg/FMIBDn3XNOKiF4OTwmkfD8/4Th/HVn/1fpAszSEb6a+k1uTnYsQZYTuhE7e2WzeW4LL4pkIBCtYTfPut8LPnc/3K8Wn84gQWxFPpCCagOi14URARECVpl6HZYkp5qV6+q0hA3Si6hJzZgtefYqxiKJlGWq2xQQqj2lV3M4yOQgKlCeuLwyq2LPK8KMpmCyAK9eiwHlo/Sp2/4A44FIlqWB5U7uL9pwMlq+xfqNLCLmpW1DatT84ILwh1ZuXVxupiBpPv6WAN7ffBUVhGWQsiUZg0HNty+5z78dP9Gb8DJNjuHx4Iav3r6L+LPfvG/4ERuEkExaIpRRAMANj8vhVUExIDnsfunseuQKWUxGEtC1gueKixDZVWr6MusvYZae63UCnGqLZ9T9N/rf1OhsmJ6bfpdrb+n1L7bXNhVQVkp4y9/7b+79kXRy1MpqgxZ0YqEGj9VVYbc8KNAbSvCn2sUtZn6duLgfv2OO7QUx9EkooEIy6qMoCjpC5hczQySlg/LEazcpynZ543qIYhpYTwFzQufyL7KkRMXdrCJMBgf5Kev6AVYWdiwOr2M+wif1X/62PHcyRGtKKZqvf2Y7Vksoy8cx1RhhgfCfRQPxfGd7bfgY/2n4dc/9isuzfGWMc3pVObRQ2NsaAteMiiKJGCmlMWp8QU0/sYEFp3j7H616fBTOHjyCAYi/agoMnLlAlfV6hpJkJZ81CjhF8/9fc8GjnRplhVVGWPwhA0lXEKeE7C7azr2vMpafrp/I257/p56imOdEsqK7JoX3sjUmi7OohOwap5HzRgwH7k8bt19N6qqQnFBZBVqvc+WCVPds1I2foL0nPN0zcoNV2LVF/+xx4DVpvWyHj7kPtSbv3Ln4s/d+qdcUWRIouiaasXIVjoYHcDJ/PToYDS5uKpUccXma3Dnl1fhY/2nue8CrmTIfmHIioKAKGmf9ZBBUdbzpB/LnsDD747h8nOc6etLxw8YV+JsKWtQwiUfRUroVQuSBMkA+REnSpguZjw20qEYB7e8cJXd77yE72y/GXEjxXFpdnwomtROBF3nPkMiEflKAWf1nz7W3l7O1surw8ycncoPdt+N63euRSrSDwBUqBQ5bhRPMWuybbTIDFZlpYKgGKCFsRQeO7QFALoOWoLzBGGP08nbUL/w9Ueo0BD0al+Hi01AMBhNjswUMxwNRnAiP+Uh8Z9zmXgvrX3pG4/TbDlnfRRsLnpgWoiFahGJUAwPvrYJRybfdLx+rpwDAT8XlNCrtEMJO9Pg2Qa12HWNTUy/jW9uurruN6XVzdNTHNvNHdMMJwEVtYqQGMTmr6xf3JnxxMLKyt32vrIHq+t21MAKhWqRY8FIEzWnVmd79rbGGIywFESxWmIjCeBjh7Zg5YYrewhYLfmuuq+rHlw+StOFmTFREHVuY73tUNNDjYfiKFW1kmEvHXvNGbTsYgUtKsg48aihaAoVVbbcCpt3ZGatEGYiGOd0aRa373XO8TUUS4HB3B9OoNIQ1U+NHMJmwzbaztxqYyHHWAxq1Nxsxk8gAblyEQeWteeeYR1qZ6rl1NFcsivoZzVmdkb273pMcWyjYTBQrJbxwtcfIXQ0INbpDJrjDKlHYLVqx1oko/1Q9Rzs4UCo8YScmw4GnE4ObMZcZUYsGMV0MbNa6RFoCa4bAXubSu3IkZXbFk/lZyYkUWwtKgorhUYrGaZqeaV4MJbEIwdHcfOu9db7sWle17rDrdZTdqFQzy65n7Ll3IRokQiPW/5nRKQwjmVPoC8Ux6YjT2GPQ7YDLbsB6elIGq1J7EbRTf2zpqvkvssTO1Z3YeaO/Zu4M4Xd+WLcSJPbKUiupTg+jP5wHKVqieOmFMfcojm3ThhREDFdzIy1G3bkJY0Xo8mnscuIddvue7Bqx1oMRvsBZsyUZsdTkf4RAQJqFUyZLTzZ3er9mX6o/pvKKhbGUkvMmUsfPbQFl234To8Ay8qA7eBl0un4Hl65ZVGmlIUkSK2VNpqUDNaTzBmUUFFVpKIDuGX33Xjs0FjLF9lqt6A6sDT8zaVU/SdSZ19YrBZbjOBk0X+VFSRCMYgkcFWRseb5e22v+xtn/Wqj86dJm3W3wHGLAuwt/bJFTqSmBGzMrDu/5vHqpZs6erzOp12dxD1TSwFWq1qPVnLV9ltrKY4lQWKDEhrOk9SiOdfthUZtzal8euLIyq2LOxoHtjZ12D2RbtLCW3ffjVU7bkcq2q9nCp0dT0X6hwG9fHxDp+sbAdvR8JZWU8MWSSYzzpApc+nCWAqPHhrDyi6AVktoDrmYp60N250N82A0iVK17JhEnwg1T2wtt1QCM8XMOABEgxH8v603Yu97+zXAMFT8Fq2D7Se2S4D8Exet3VuqVrSo9+ZFhFZNMCAEkC7NIhGKYsfbe7H5yNMO0MPeLPq2U7w+tYg6pO9NCdiICCqriEih7nMTmqua5U0Mqnfniw9h/UsPtqQ4dnUO1XVeSdRqN3bqvsAW64i8fL4LqHXb7ntwnQ5WYMZ0cXY0Ge0f1qrbqI3Ff027vPXsal+UJtBaoIPWXDWtFhsWkw0ocQNf6MqoPv3V+0hRFaisx21xqyHP/NDNJcOmCzOjAUFCRaniW5uvxrFjxxCUgg4cx2l6Oj+UQyvGSKtEIzRoadwyDlqmyb5QHCW5wgIJuN0hX71IogeveKdDCSsbhMdASmbbNs2Wc9hr473ttalsWXyK27djmS0G7Hw/4714KIYdb+1tSXHcH47rAc3kqM0wGKJ+InhG4tTuATY32iW5ue1dA6t7ce2O2/XqNsB0cXZ0MNo/0kA9mgle88bJPDd2aspcOl3MrDZrWnMBLcFel3fY+Yks1cJOZN+lG2mmlJsgohZtg8xQYqIEOiUcyZSyHA9G8c7scfzz8zejolQ98JTOdvBGmKBaPJ5dKo2qIiMeiuGV9w/i3pcfsbzm/mWb6WR+ek1QDOjRZl5ivKhJWeEmTCYPvSFL+xgRUFWrSEUG5qBBmZ+dRdvbnS7koNTaXGff8YP4h9HvQxIliCSYUhwrDa2ya4ZAAqpKFUEhgNG/umtuVqVmUweRhXLbPf+G256/F6t2/Khms0oXM+OpaP8Is5Zgxipiiqz40lxT3FCdHho2LUPTeuTQWMcl/gR7TcTjTt2FLeHwii2LpgrpMUkQ7RWOhoHW+Hc0GEFFqXIy3I9db7/omvhvLjbg/ZduokzJlG7Y4XkqrCIRimK2lOVIIIz1Lz1km/r56GXblx6bPXGhrMqQSIQkmH+kpt+1jJ21H9H0GRIR0N83/m93ygkkIlvOY+fSn3500uJ4LkBRR7Z/3XYTZkpZhKUQ0sVZU4pj77ctVkvYc/GjNOc1yx1sjx0uqR/svgfXPvtD/TRQK8WVivYPQy/FRS2binU4W7cfvmyhaf3s4Cgu29i+piU1q4GerX8Nm//cQevIym2LP3X9CKci/ai65MHWAk9VBAQJhWoRA+E+ZjDtP3EYATFg6wRINvZcrxINhDUvfY/TVSABESmMN9LvYuPkDnziE9Z5zCcuf/qB31lzISYL05BVZQ0BXclS2heKj4iC6LG1hLJcsXHI7UyhsJ433Etkg6qqKKsVhKSgdYpjFxEFEZP56TG3gp7tMWSCF69F6jBFDgCsfv5erNpxOwZ1GqinyWksGOHpeZGlxqnqVXKoQzgzNK2T+enhZKR/8cJYCo8eHAMYuPaL/9AhYLWDPz2I2zwn+bEr3s0cvzoejLoCgwFaBiXsDyUQCYRqRQDIaxmpNtbP3osfo3Ov+wIbYR1OIK6ygrhezr4vHKP79j2OP/nUF3BO8mOW1352yf1dG86bdq3Hzc+tx1AsNXoyPz0SME5iHQZBEETkSvmJFy9+bNFcVmjX4Yi8baDafND8gLLlHCJSiMtyBaK+2FqOkyzOOyRBxGQ+PdENsHKfZK10nzvUblY//2Nc++yPkIr0G2A1PhjtH2bWi/cSORoZnNomgJCr5BGRIhBJNJ0udq5pfZCfXp2K9C816CER4d//6O87oYTtreJ2Pd3dZONFd1wTCYRQUaqe69ZVVRnJcD8K1RKrrMV6tbsg2llkC2NDqMgV652mYWHpp22BMAYjydGpQhrr9v605wzq8OQbuOflnyERimOqkB6RBKdMk1zbQQuVIg6v2LpobuBCvQkv8VQ1R3PHKFZLCIpBNiihYlMBm5oC7yVB7DhGsDO90/o9pnbB6l6NBuoe7NPFGf00sNkWZX1KaQ2ltcxoyFUL2H/pZgJYq4pFNKeSIIamZaaHjxwc9WzTEuwm3oclz3/tESrJZc1x0abb3LKzKogFIyjLFS5Ui57ArtMj5GeW3KedGAqC69xkZoMSDveFE3js0Fa8cvxgT8fvpl3rkCnncEp8wfkluWIaC/sql0bQajeQxTV7B3UGVl4ek0CEslJFUS4hJAWhqKqrGwED+olgEWf0ndIjrPLmiU1gb9mgmzSrOlhlRgejAyPNp5FO97WDUlHLSLFGA6t6WJ2Wbpk8rR87xycrQ/zPDj6Jb3oALaEbD6Tb+PbasicpXcxMCILokWVrTn4GJWynLCEIbfPyRamzLixWi9ZVdptEZRV94dhwQJC4pJSx+oV7ewZWGw9vx9aJXegPJ3B06o09iZApl5dNHw0n0YPLx6jLq7Srl/J6RYG0HOJePPW1DKhaIWBJEDH2V3fPw07t7hbspbNr9z5QM7ADGg1MRfp1mxXP6RGIJOBkfqoln9XB5WOUKxegqqqnwyenXjcb4hfEhvDwwSdxxebvtQFYnXSSe2NHPbxy66Lpwgw0SuNNVOaO+tFu8zdcdMcDJYMWuoYuMQJiAFOFNPpCMWx/YzeeemN3T5bCrc/drVFiZk6E4hpYmWkqw5MtZS6LsTcrntv/tMdNiwEUKsXO/M7mDFLckda/8fB2fP+Z1ZpmpbsuJHUPdmZ1Ti0VBQGThfSYXXWbg8tHKVcpQPGU4cLdpmUO41kYG8QD+zfg+h1r56phcZeXvDcxqu9IgmiVMMFCuW+vLUydL7JDy8co60QNTaKoCvrCCVRkmUUScNvz93R9rK7bsRavT00gGowgU86hwdDeGDFdGyKRBMyWctjfYQiO1fJ3cv1tf6rYkQoPvi9k43RjekPQsjaMHWgz/377bJDnBGtmeSP9Dq7cdjMigQiIgHRxtgZWKtgD3WEHzUrEyVx6jduhgwZaeagq66DlctrCjWYS8xt1TSutB0wnsWbPT7B1YpflpSTbbcfTUPYuJ7QhQ9EUMmXNgGpOhWGfz4pcx61b3hhWS9RKe2EAEgnIKQX0heJ49f3X8cMXfoLfH/4NFCpFzwcMVtpbUAzgncxx3Pfq4+gLJTBbynK/UT/Rboz0lwqrCNlGB3SiahPIQePijkGLHKwt9pkp7EIZmYGAKGGy0IsTweb+Nh5zNuqz1PCOlzTPtzx3F6YKaaSiA5jMp8eT0f5hMDxVHbS6Z12zEnEyN+U5rfHB5WN03vUjHA/FIUCA6nTCaZ56FoCqU8IlJ/OTGIqmlkqChJt2rcMFw7/pAliOBr9mL4zuOI26yVNf/Qn98k1fZEVVIQhkQmjqCGDM/ZkrgXn10k306Rv+gPtCcZuUv/WTGYVV9IVimC3nOB6M0k271uHm5+50rE/JHvujghHUqxTXgsldKl+Kgoh0IYNDK7pouyJ28fnhesxiW/YGtul5B1QRgCSKmCllcHjFlkW9nLvkYQ7aFeK1nG/vv47Ro8+iP9KHdDHDBiVkzzyBmwCUTGDVfg72g8vH6FPXjXBfOA5B0NxK3POSWvdZp4RLTuSmJhbGB6858MFRPPDqBnz5M1/0QAnJ+obUCZvsgrxyyQaaLWebgirmSlNpboUldYlIIUefseYAWMNYGQlGEZZCiEhBhKWQ/hNEWAoiYvo9on9G+7/+2vz5aCAMiSTMlGbHo8GIbssjx921qsgYiPT1ZInap6SjWi4VzyTJpFwxqM0n1gpsop5F9dTYAnz40uxQ6nzCsOnIUyjJFUgkskEJ2UFtZYeFbUCLRgOn1xy9rLPqNodWjFG2nIfKrCcIYBdAsXOsYD1gOnl1ppTlgChh05GnXGxYBJeUINSg+NE8lvx4fcUWmirMjNWN8ILHydrOdG5f9l78GGXLeWge5VZTpD52KquIBaMoVIrMrJoyCtVDhc2/m/XYxs80/Y0ZRMR9ocSw0pJBsxmktZqB2XIez/3tQ11+gGyTcMQ02tRmKTlTwijyRvpsjQACaWm3RQjY+jf3ztPkdWMi5Jkyv3TsAEKSdoATloLaxkQeTB82z0kURJwsdA5WDTatcl7nYIJ7QVDb/musRxIkhKUwjky+ifdm33cALLYetforFQTVtGx4XhLnG3Jk5dbF04WMfnKotkVMybajDFGYm7Y4FBlociZlW8OzyiqiwQhK1RKX5TKX5AqXm35Kpv9L+mdaf8q1zxflMlfVqsnNohH+zG0RAJTlMk5LLOjJ0oRprqAJcrVfvds9g2KgKW1Xa9rEZqOFM5ASsuU8XvzGY/MEVuRoMLU6OCIbO8+xY8fwQX4SBOL+SF89zbSFUZ9acnC1aroiCZrNqkt1Aw8uH6XZUlazZQlO7qnscHxS96nMlnOcLs3iePakPWA1eomTpZag/SaY/kKO+ay6Lb8weHYqV87XbDXkUdPjlr1HpxdM6A8n5tSmZ5c+QPlKEUJtHJxMz+gZJWy8I+mPtxEgBEFEoVrC9r/5cVcXrZZxwhw6S45qe9BDObSF8ZT1FWxAzyo/hGH4FrUTwYnXu2mzc5FwIGSTBrx1hZkdzgJi61kYi1rO/JJcgWBetlYBsdTo105NBxeSIOJkPt31uoGHVmyhXDmn0UOyp4HOR2RUOxRRWGnJwNIAWDWbBruRpsYdLqU7r82HPP5/fpSOBiIoy1UTUHrN6Wyd7mTYJr6vHTk7eeaaolzyTJO7TQktUyw3jQsRoVgpYVHyrM92+7ksjA+5ajrmd081fd5Ozh3SbOKqa1oZsrUZQg/XmpxLHcEORQskZ4tEeNRUGametogZONMiAP2MU05HPBhDSApo7gsWfMFxFeiamEgiPsjNnQY6GeJzuk1LC+Nhx3aiNn8btaywFMZQJMkDTcqE0DrAsFRjrZxDjWP9z5xy7ryaKnd/7WEqySU9fMdk6LN1E7ZSQ/Wlz8Bnz/ilObdp01+uW1qslqy9322jJFT7j7IT4TXyGcPBGRQWBktCWSnjiYvW7u32M/nlU8+rtZksC2lQ3STPjE8v/IT7NU87T6c4zhumtQMm1Zx2Z0qzc4+T7EB+7+xfr7WkOZcnmQ4gvGy1AFCSy6w5Bqv6sFKDZdkxJoRYLx8/1TOwMtPDbDmvpduG0ALZVumtm7cckUSkS7Mt86TFeCOQ0ARORk21JhXfxJ0/f+pn53su4MCyJyldykwQmfJH2qbgJQuCa3xLxVkDp3elTa+v2EL5llhGbix82kJtyGITMF64nLpYzVKGibKbbFdEyFeLXQ7BqcuXPnWBXnm9mZ5QEzhrjf7k0DkeNVG0OEOyzabUvJFKJCJXyePU+IdzIvj5c/6TyRnIYnehVq3big4aIutplxikDwm7pDGua94aWE2vsfNg7xlo6UHpZt2yyZO06SCGatPGKpV1C2DFgtGGdBzckt/DqJRBYGgxW2eccvqHMiEOr9i6aDI/s0azHZE9PWBrj2lGW4dWnkSL3eMmm58NcSdr+lT7ll3CLnYoOtEC2nX7hdJ2PcD2xN67o366zDZGZTsJGadhDTaZ5o2zcSozUMuVFg9GsfWv7/nQovllVdXXCizZSq1nRJBZwVA0eaHdteLBWEpl1XIqNWdO4dqoCJrrQj49b2BlpWkRGT6UjZ4GIKt8p5pPV0QKuwPWs0vup4pSqVEbqu2O1ESoNL8LxocrRy/btvRkfmqNKIj1MIHmfYesKYXKCvojia62Z/+yzTRbzusnj+7xCk57o5MpriE9Mzt/R6sxmMdrbZapalcEgWwsKXW40k6Bop6vue+SDVSoFCC2pMnhJq26/regKCFbLiAoBrFz6YMfavZUKxpE1GpWkQQRhUoJGy664wF7++3t6bJS0RyoAeu5bjKPEBEEQcAH+akrek0DnUBrtpyDyqr+DK2qxVMLm6soFey1yPhqeZ6fKxcuFEiwcdTUbQOCiKJcwsLYIPChg9b2pSeyUxeqqqqfdAq2Zl8D5YNiAFOFmSue+9uHuz6hQ6KW2sQNrKzf5SaDrNP31fqiZTvXDbU2WXoYH68vAAADmUlEQVQtpycWojGlDTVoFZIgIVfOY0+bxUgVVUFZLiMoSCCyyhQvgIgg6WmhT2Sn1pwaH8ILX//Zh57q+eDyUTqRm7wwIEqWIVhE2lzMVYqIByMeNXinIhpcq26tqio+yE1dMX7Z9ms+zDE4tHyM8uUiSnIZAUG0AKlGDVoSBOTK+TWWG4AdtTjn33/v/KFock9AlMBQwayzZ33Qc+U8ZFZwoMe7djvyKzf/MRerJSRCMQSEgO4JzA1bG4EgqzIm89MXTlz+9AO9ast51y/moVhKtzs0qf8tCrDT/syOsEUN+3QjcTJ27unCTM+1K0MWXfv731oQS11NRFBV1eQMKKIolyGrMvZdsrHttnzu1j/ldGl2TUSKLAlKon5CrPVRVRVUFBkluTQWlsIjr1668aOTk762nj5/fiwY3RMWg7WAeWZGVZWRq+TXDEVTS7w68p79759Pnp5YOK31XW2YQwYoGkkD9n2ExuJ311zI7+cmx1LRgRGRBCis1BQIw/9MFER8kJsas6sDSU4FOH/t5j/h2XJ2jSiKSyTS1DlZkSdU5rFPDp095qS+fpjyG7f9GU8XZyaYeUISpBFB588yKxMqq2PxYGzJy994oqcP8nO3/leeLMx8NiBI9zN4wnt0ILuAlfdym0Q0rKjKmmggcvWrXcnI4E0+ueqCcUkUhyNSuFbnMFcpTkSk0PArl2yYczt+e/WXWUsmp518xYIRPNPFFNO9lN9e82UuVApg1nzRBmMDV2y8aF3bGtAvXPufVwdFaUkkEIYgaLZkWVVQrJYAaAdAH9Ux+MyNf8gluTwWDYRHJDEAgTSbVVmuoFApXjhx+VO2uELMDF986c2O+j+4rJQRC0Sxbd5CYf5jye/98H/WsuwORPrGNv/l+sU/T+3/zdv+nKtqFSEphB1LHnAvI+wDli+++PLzIoI/BL744osPWL744osvPmD54osvPmD54osvvviA5YsvvvjiA5YvvvjiA5Yvvvjiiw9Yvvjiiy8+YPniiy8+YPniiy+++IDliy+++OIDli+++OIDli+++OKLD1i++OKLLz5g+eKLLz5g+eKLL774gOWLL7744gOWL7744gOWL7744osPWL744osvPmD54osvPmD54osvvviA5YsvvvjiA5YvvvjiA5Yvvvjiiw9Yvvjiiy8+YPniiy8+YPniiy+++IDliy+++IDliy+++OIDli+++OKLD1i++OLLf1D5/+53GqAEuZB/AAAAAElFTkSuQmCC;fillColor=#FFE599;gradientColor=#FFD966;" parent="1" vertex="1">
          <mxGeometry x="780" y="270" width="91" height="91" as="geometry" />
        </mxCell>
        <mxCell id="2d47nBokaIBnYjA3GNP5-33" value="Client" style="verticalLabelPosition=bottom;aspect=fixed;html=1;verticalAlign=top;strokeColor=none;shape=mxgraph.citrix.laptop_2;fillColor=#66B2FF;gradientColor=#0066CC;fontSize=14;" parent="1" vertex="1">
          <mxGeometry x="600" y="282.25" width="89.18" height="66.5" as="geometry" />
        </mxCell>
        <mxCell id="2d47nBokaIBnYjA3GNP5-34" style="rounded=0;orthogonalLoop=1;jettySize=auto;html=1;strokeWidth=2;endArrow=none;endFill=0;entryX=1.065;entryY=0.613;entryDx=0;entryDy=0;entryPerimeter=0;" parent="1" source="2d47nBokaIBnYjA3GNP5-32" target="2d47nBokaIBnYjA3GNP5-33" edge="1">
          <mxGeometry relative="1" as="geometry">
            <mxPoint x="1021.2765957446809" y="400" as="sourcePoint" />
            <mxPoint x="1113.5" y="488.4591836734694" as="targetPoint" />
          </mxGeometry>
        </mxCell>
        <mxCell id="2d47nBokaIBnYjA3GNP5-7" style="rounded=0;orthogonalLoop=1;jettySize=auto;html=1;strokeWidth=1;endArrow=none;endFill=0;dashed=1;" parent="1" source="2d47nBokaIBnYjA3GNP5-2" target="2d47nBokaIBnYjA3GNP5-23" edge="1">
          <mxGeometry relative="1" as="geometry">
            <mxPoint x="1083.5546875" y="460" as="targetPoint" />
          </mxGeometry>
        </mxCell>
        <mxCell id="2d47nBokaIBnYjA3GNP5-2" value="Node API service 1" style="verticalLabelPosition=bottom;aspect=fixed;html=1;verticalAlign=top;strokeColor=none;shape=mxgraph.citrix.web_service;fillColor=#66B2FF;gradientColor=#0066CC;fontSize=14;" parent="1" vertex="1">
          <mxGeometry x="948.5" y="210" width="63" height="60" as="geometry" />
        </mxCell>
        <mxCell id="2d47nBokaIBnYjA3GNP5-6" style="rounded=0;orthogonalLoop=1;jettySize=auto;html=1;strokeWidth=1;endArrow=none;endFill=0;dashed=1;" parent="1" source="2d47nBokaIBnYjA3GNP5-3" target="2d47nBokaIBnYjA3GNP5-23" edge="1">
          <mxGeometry relative="1" as="geometry">
            <mxPoint x="1077" y="469.47717842323664" as="targetPoint" />
          </mxGeometry>
        </mxCell>
        <mxCell id="2d47nBokaIBnYjA3GNP5-3" value="Node API service 2" style="verticalLabelPosition=bottom;aspect=fixed;html=1;verticalAlign=top;strokeColor=none;shape=mxgraph.citrix.web_service;fillColor=#66B2FF;gradientColor=#0066CC;fontSize=14;" parent="1" vertex="1">
          <mxGeometry x="948.5" y="330" width="63" height="60" as="geometry" />
        </mxCell>
        <mxCell id="2d47nBokaIBnYjA3GNP5-14" value="" style="endArrow=none;html=1;rounded=0;strokeWidth=2;entryX=0.062;entryY=0.247;entryDx=0;entryDy=0;entryPerimeter=0;" parent="1" source="2d47nBokaIBnYjA3GNP5-8" edge="1" target="2d47nBokaIBnYjA3GNP5-2">
          <mxGeometry width="50" height="50" relative="1" as="geometry">
            <mxPoint x="1190" y="280" as="sourcePoint" />
            <mxPoint x="1010" y="240" as="targetPoint" />
          </mxGeometry>
        </mxCell>
        <mxCell id="2d47nBokaIBnYjA3GNP5-16" value="" style="endArrow=none;html=1;rounded=0;strokeWidth=2;entryX=0.163;entryY=0.14;entryDx=0;entryDy=0;entryPerimeter=0;" parent="1" source="2d47nBokaIBnYjA3GNP5-8" target="2d47nBokaIBnYjA3GNP5-3" edge="1">
          <mxGeometry width="50" height="50" relative="1" as="geometry">
            <mxPoint x="1199" y="292.01631359661997" as="sourcePoint" />
            <mxPoint x="1020" y="250" as="targetPoint" />
          </mxGeometry>
        </mxCell>
        <mxCell id="2d47nBokaIBnYjA3GNP5-36" style="rounded=0;orthogonalLoop=1;jettySize=auto;html=1;strokeWidth=1;endArrow=none;endFill=0;dashed=1;" parent="1" source="2d47nBokaIBnYjA3GNP5-32" target="2d47nBokaIBnYjA3GNP5-19" edge="1">
          <mxGeometry relative="1" as="geometry">
            <mxPoint x="800" y="338.59355357648565" as="sourcePoint" />
            <mxPoint x="734.9766999999999" y="343.0145000000002" as="targetPoint" />
            <Array as="points">
              <mxPoint x="940" y="470" />
            </Array>
          </mxGeometry>
        </mxCell>
        <mxCell id="2d47nBokaIBnYjA3GNP5-37" style="rounded=0;orthogonalLoop=1;jettySize=auto;html=1;strokeWidth=2;endArrow=none;endFill=0;entryX=0.011;entryY=0.447;entryDx=0;entryDy=0;entryPerimeter=0;" parent="1" source="2d47nBokaIBnYjA3GNP5-32" target="2d47nBokaIBnYjA3GNP5-3" edge="1">
          <mxGeometry relative="1" as="geometry">
            <mxPoint x="810" y="348.59355357648565" as="sourcePoint" />
            <mxPoint x="744.9766999999999" y="353.0145000000002" as="targetPoint" />
          </mxGeometry>
        </mxCell>
        <mxCell id="2d47nBokaIBnYjA3GNP5-38" style="rounded=0;orthogonalLoop=1;jettySize=auto;html=1;strokeWidth=2;endArrow=none;endFill=0;" parent="1" source="2d47nBokaIBnYjA3GNP5-32" target="2d47nBokaIBnYjA3GNP5-2" edge="1">
          <mxGeometry relative="1" as="geometry">
            <mxPoint x="820" y="358.59355357648565" as="sourcePoint" />
            <mxPoint x="754.9766999999999" y="363.0145000000002" as="targetPoint" />
          </mxGeometry>
        </mxCell>
        <mxCell id="egRuFmPWwaY5cJxwygKu-10" value="Docker Volumes" style="whiteSpace=wrap;html=1;fillColor=#ffe6cc;fontSize=14;strokeColor=#d79b00;verticalAlign=top;shadow=1;rounded=1;" vertex="1" parent="1">
          <mxGeometry x="1230" y="420" width="230" height="130" as="geometry" />
        </mxCell>
        <mxCell id="2d47nBokaIBnYjA3GNP5-21" value="" style="group" parent="1" vertex="1" connectable="0">
          <mxGeometry x="1260" y="450" width="53" height="75" as="geometry" />
        </mxCell>
        <mxCell id="2d47nBokaIBnYjA3GNP5-19" value="ngonx.conf" style="verticalLabelPosition=bottom;sketch=0;aspect=fixed;html=1;verticalAlign=top;strokeColor=none;align=center;outlineConnect=0;shape=mxgraph.citrix.document;" parent="2d47nBokaIBnYjA3GNP5-21" vertex="1">
          <mxGeometry y="9.146341463414634" width="40.50406504065041" height="62.048780487804876" as="geometry" />
        </mxCell>
        <mxCell id="2d47nBokaIBnYjA3GNP5-20" value="" style="verticalLabelPosition=bottom;sketch=0;aspect=fixed;html=1;verticalAlign=top;strokeColor=none;align=center;outlineConnect=0;shape=stencil(5VjbcpswEP0aHq3RlctjJ20/oP0Chcg2E4I84MT233dB2AUp9shbO81MGGaAXbQ6Zy+6JeKhW+uNSTjV3caU20R8Tzh/022lH2sQc9CsnTATJGdO0ugX44S/bP8X/W3K17baHpy627b22eyqp+3YtGrWBtROuxvNSZLLXiJ+JPQbyPtbPJS2aQBHZZtukP309I+6fF619rV5ele9tK0Z1VPFUb3RPaRAcVS/2Leezd4hZJz0gHvMh8AFftdzQ7ot4aXW7cos4H2xrPXKmaCueXvqY/w+zL+7nTGbSbOx17EVPQHbL/S+6hat3ereZ7M+RpMpiwRdV415r48TtM9BfhKWCPaUUAT5lJOUo+zcmTxUTRpPPjpkc/aTTq7NoTvTn8Qlgn50uZa17czZv8QDyM+MHDDiVHV9oWmvLm1tW/h0zwFawgVcl7BdOViJoF5F+s8xY37MiPKjdpRcjpvIrqlZgStaVZBs7gIF8DCGcpJ7hhSqkCAEyguKICnGkPIRCUk4jpqHSKUkwxjKAmdnKGcDNepRUyhq4BERGCow1FLCbkJNSZ8aGMKEX4kAUYozxIj0DOWoWpM5KYISQeURDfJIEoZBlAZFS1F5JFXgI4YKvxR+rckCNYxIFuQRjprIfWoSl5CiCAwpnKEgauA1TEJC9fvO5qjqhxHaR8RxzuZ+iUjcdCSYP7VLipuOmI8I4ngbRJBZmOoXwXgEK4VbrNmOf80XSVz6uHnsNBq9sBX+GkmcWyKNDf9iOxZ5zMo+1t93x82Kq3Yk+a03Eh+Du4/O58A9yeE43HH5/V+2QMvhugQPHFpv1hpe3XPci99y5/TVDzq85dfXPujgKnJCjKdP/T0zjdoyX3XGFw37DmU+NArOXQepO1seBH8A);fillColor=#FFE599;gradientColor=#FFD966;gradientDirection=south;" parent="2d47nBokaIBnYjA3GNP5-21" vertex="1">
          <mxGeometry x="26.284552845528456" width="26.715447154471544" height="26.715447154471544" as="geometry" />
        </mxCell>
        <mxCell id="2d47nBokaIBnYjA3GNP5-22" value="" style="group" parent="1" vertex="1" connectable="0">
          <mxGeometry x="1370" y="450" width="60" height="80" as="geometry" />
        </mxCell>
        <mxCell id="2d47nBokaIBnYjA3GNP5-23" value="api-service.config.json" style="verticalLabelPosition=bottom;sketch=0;aspect=fixed;html=1;verticalAlign=top;strokeColor=none;align=center;outlineConnect=0;shape=mxgraph.citrix.document;" parent="2d47nBokaIBnYjA3GNP5-22" vertex="1">
          <mxGeometry y="9.756097560975611" width="39.73983739837398" height="60.8780487804878" as="geometry" />
        </mxCell>
        <mxCell id="2d47nBokaIBnYjA3GNP5-24" value="" style="verticalLabelPosition=bottom;sketch=0;aspect=fixed;html=1;verticalAlign=top;strokeColor=none;align=center;outlineConnect=0;shape=stencil(5VjbcpswEP0aHq3RlctjJ20/oP0Chcg2E4I84MT233dB2AUp9shbO81MGGaAXbQ6Zy+6JeKhW+uNSTjV3caU20R8Tzh/022lH2sQc9CsnTATJGdO0ugX44S/bP8X/W3K17baHpy627b22eyqp+3YtGrWBtROuxvNSZLLXiJ+JPQbyPtbPJS2aQBHZZtukP309I+6fF619rV5ele9tK0Z1VPFUb3RPaRAcVS/2Leezd4hZJz0gHvMh8AFftdzQ7ot4aXW7cos4H2xrPXKmaCueXvqY/w+zL+7nTGbSbOx17EVPQHbL/S+6hat3ereZ7M+RpMpiwRdV415r48TtM9BfhKWCPaUUAT5lJOUo+zcmTxUTRpPPjpkc/aTTq7NoTvTn8Qlgn50uZa17czZv8QDyM+MHDDiVHV9oWmvLm1tW/h0zwFawgVcl7BdOViJoF5F+s8xY37MiPKjdpRcjpvIrqlZgStaVZBs7gIF8DCGcpJ7hhSqkCAEyguKICnGkPIRCUk4jpqHSKUkwxjKAmdnKGcDNepRUyhq4BERGCow1FLCbkJNSZ8aGMKEX4kAUYozxIj0DOWoWpM5KYISQeURDfJIEoZBlAZFS1F5JFXgI4YKvxR+rckCNYxIFuQRjprIfWoSl5CiCAwpnKEgauA1TEJC9fvO5qjqhxHaR8RxzuZ+iUjcdCSYP7VLipuOmI8I4ngbRJBZmOoXwXgEK4VbrNmOf80XSVz6uHnsNBq9sBX+GkmcWyKNDf9iOxZ5zMo+1t93x82Kq3Yk+a03Eh+Du4/O58A9yeE43HH5/V+2QMvhugQPHFpv1hpe3XPci99y5/TVDzq85dfXPujgKnJCjKdP/T0zjdoyX3XGFw37DmU+NArOXQepO1seBH8A);fillColor=#FFE599;gradientColor=#FFD966;gradientDirection=south;" parent="2d47nBokaIBnYjA3GNP5-22" vertex="1">
          <mxGeometry x="29.756097560975608" width="26.211382113821134" height="26.211382113821134" as="geometry" />
        </mxCell>
        <mxCell id="egRuFmPWwaY5cJxwygKu-19" value="" style="group" vertex="1" connectable="0" parent="1">
          <mxGeometry x="610.0000000000001" y="80" width="89.11999999999989" height="58.16000000000001" as="geometry" />
        </mxCell>
        <mxCell id="2d47nBokaIBnYjA3GNP5-8" value="" style="verticalLabelPosition=bottom;sketch=0;aspect=fixed;html=1;verticalAlign=top;strokeColor=none;align=center;outlineConnect=0;shape=stencil(zZrhbqMwDMefph8bxUkI4eOpd/cejNENjZUK2Lq9/QVotpH1II4sjapSG6eGH8FxnD/dyUP3mJ/LneB5dy6Lfid/74R4zdsqv6utWdiex8kIQjFQk+mUP5eT9VA3L/eTsevb5qm8VPf91aM6PZZt1U+9l+tRTMaMGUzyz47/sh3DWx6K5nSy56+aUzfa/nr9d3nx9NA2L6f7WYfr7vLX8oaf6z7nA9O3Dtf93Izeb1fEjIlkgn6fLCplmZ4st8/gDpS3hf1S5+1Dubff98c6f5gOwSf39noO6drv83Z3KcvzFzeYzFcvASy7kr3t87eq27dNnw+DNjuJO6ZgagvUSmCowTBBS+1upqN27WXqJGUmnNreGeKxTryxToLG2th7Hk6dMLkFaBASQ62pJ2PqUadh1DauU0SEcGrsuLgGzVHTUTMgxhYetgjCTi0IYrQNdWjHYqcsCcdWnDxle0Eiw4LErtKYGamoc3YsNir9mZQ6tiOxtcFgZ+TVSHwmQWADNxvhlqjgBhDbqEhAZKjMzRPq8FYetwrjBoUbb2DJFrizBIctqcMkDttIzIoDwFm6hSSoNWq0bcG9idwtOWabAJx+JxmFbYtogVgoOeO01JDOqV17reTGJEAD1GMdSc1kOLQmrwAjoTNMgAQLJEXddEtCjbV/02pG63/0H3k4Nm25JAyNolTR1E1rDdPniLyzU3d8LWHbw1d1fds7S3O4E8veXyUxwb9IYzZ7rZ938l74UVt2vb38xV8U/Spf1OUf5fF4lMsXgZLdhGB6LrslQL6Jy+ZzwbVXkiWqfpGKunxxZcUHtQ6hVgnjPypPSI9ahlAnBlO92DtDTK35nDpYdkNIQYZ6NY2V3QQmQjKmiYfaW5h0YA3wmSdCIiShXk+F8OIagrBxejIY6qo8sgxIJaZ6sdUwce4DL2NDUMYesBGVoiKvFKUXJK69pl9pTGxr8uwXiZ0aVF1OLuBL+THJP8g/TWsqFmorlGnyfBK1Tg75BCW+0YuG3qLj2mviG0rrHERD6ucPceMtkWInuayiPG4Vxg3wwyJtpPiG0wx5tg1dBfcAAjh9KozK4BqXTIBexfKCWwYFt0Q9Nx4EcWpsf9UJWnIkakqmYhs7M0DFiC0JqHUsjxqCqFGKoSb/Fwd4WQSCsohAbXGCZZIY8c31DULQDdfR6ZsEN1qnP5aNhn8=);" parent="egRuFmPWwaY5cJxwygKu-19" vertex="1">
          <mxGeometry width="89.12" height="58.16" as="geometry" />
        </mxCell>
        <mxCell id="2d47nBokaIBnYjA3GNP5-9" value="&lt;br&gt;MongoDB Atlas" style="verticalLabelPosition=bottom;sketch=0;aspect=fixed;html=1;verticalAlign=top;strokeColor=#82b366;align=center;outlineConnect=0;shape=stencil(7VfBcsIgEP2aHGUIG008dmz7H2tEZcSQgbTavy8CaU2NMbFNp4dmnAm+ZZe3sDxIBAuzxZJHjKIpeV5F8Bgx9opa4FJamFnL1oMxZYRmHipwzz36iBUu0YSuptJqxw9iVQUnUWy5FpW3HjyWZYQmJwSeIvpg8dMPFrkqCstAqMI47PmLfYn5bqPVS7FqGGqzwVfe4tfTXOKJ8YWhNu+V8z76BCiJfUJvYWbmZJp4pD1+HQZ1bhsS9YZPbHuylrgJIb27DiMkIZwOIzAI83vgvDxzCzyCV5bWxI4TPAoz0arC04Q2xhhKWoqCt40R4mTsbyRPB+Tem3MulekqG4tfVI5DrxQrLNZK864qdhsoV1JpC/i3oxwxoO7pom3DCynbvQHmc4Bu7/Pta7fr5zaOCbs9rvfu6KS5qWz6nT2sBN3iN1r6XEpRuvUOaScxmTWlK23WXKOqKGGdReXp3cV+7Z47F4+SG7RQllu0Tf/u5zNIMIFAY6bS9C7tgXo1amEYX3djMm0XH/pVeeHXlXeW/XT6H/9rpleSbypvOhsivXE4/EcjPe/DOZkSmPYmbTOsw44107RPmcUwYKZTu+tGO+R6Ktr4iv/dA/P+I+//yvh/Zfzh3XS12p3bxdXRof77zQHv);fillColor=#d5e8d4;gradientColor=none;movable=0;resizable=0;rotatable=0;deletable=0;editable=0;locked=1;connectable=0;" parent="egRuFmPWwaY5cJxwygKu-19" vertex="1">
          <mxGeometry x="31.159999999999854" y="12.579999999999998" width="29.61" height="34.84" as="geometry" />
        </mxCell>
      </root>
    </mxGraphModel>
  </diagram>
</mxfile>
